<svg width="22.626953" height="22.627441" viewBox="0 0 22.627 22.6274" fill="none" xmlns="http://www.w3.org/2000/svg" xmlns:xlink="http://www.w3.org/1999/xlink">
	<rect id="Iconly/Light-outline/Arrow - Right" rx="-0.500000" width="15.000000" height="15.000000" transform="matrix(-4.37114e-08 -1 -1 4.37114e-08 19.8135 19.814)" fill="#FFFFFF" fill-opacity="0"/>
	<rect id="Iconly/Light-outline/Arrow - Right" rx="-0.500000" width="15.000000" height="15.000000" transform="matrix(0.707107 -0.707107 -0.707107 -0.707107 11.8135 23.1274)" fill="#FFFFFF" fill-opacity="0"/>
	<path id="Arrow - Right" d="M7.79199 15.6108C7.57812 15.7734 7.26855 15.7549 7.07031 15.5566C6.85449 15.3403 6.85156 14.9927 7.06543 14.7793L13.8447 8L8.91992 7.97363L8.83887 7.96729C8.57324 7.92627 8.36816 7.69678 8.36523 7.4209C8.3623 7.11768 8.60645 6.87305 8.91016 6.87451L15.1543 6.90771C15.1904 6.90723 15.2275 6.91016 15.2637 6.91699C15.5215 6.96436 15.7188 7.19141 15.7197 7.4624L15.7529 13.7173L15.7471 13.7988C15.709 14.063 15.4824 14.2642 15.2061 14.2617C14.9023 14.2588 14.6553 14.0103 14.6533 13.707L14.6279 8.78223L7.84766 15.5625L7.79199 15.6108Z" clip-rule="evenodd" fill="#FFFFFF" fill-opacity="0.500000" fill-rule="evenodd"/>
</svg>
