<svg width="22.626953" height="22.627441" viewBox="0 0 22.627 22.6274" fill="none" xmlns="http://www.w3.org/2000/svg" xmlns:xlink="http://www.w3.org/1999/xlink">
	<desc>
			Created with Pixso.
	</desc>
	<defs/>
	<rect id="Iconly/Light-outline/Arrow - Right" rx="-0.500000" width="15.000000" height="15.000000" transform="matrix(-4.37114e-08 -1 -1 4.37114e-08 19.8135 19.8137)" fill="#FFFFFF" fill-opacity="0"/>
	<rect id="Iconly/Light-outline/Arrow - Right" rx="-0.500000" width="15.000000" height="15.000000" transform="matrix(0.707107 -0.707107 -0.707107 -0.707107 11.8135 23.1274)" fill="#FFFFFF" fill-opacity="0"/>
	<path id="Arrow - Right" d="M9.91992 17.4058C9.59863 17.6494 9.13574 17.6213 8.83887 17.3242C8.51465 16.9998 8.51074 16.478 8.83008 16.1584L18.999 5.98901L11.6123 5.94946L11.4912 5.93994C11.0928 5.87891 10.7842 5.53467 10.7803 5.12085C10.7764 4.66577 11.1416 4.29858 11.5967 4.30103L20.9639 4.35059C21.0107 4.34985 21.0566 4.35303 21.1025 4.36035C21.1113 4.36157 21.1191 4.36304 21.1279 4.3645C21.5146 4.43604 21.8105 4.77637 21.8125 5.18286L21.8613 14.5654L21.8535 14.6873C21.7969 15.084 21.4551 15.3857 21.042 15.3818C20.5859 15.3774 20.2158 15.0049 20.2129 14.5498L20.1748 7.16235L10.0039 17.3328L9.91992 17.4058Z" clip-rule="evenodd" fill="#1460A3" fill-opacity="1.000000" fill-rule="evenodd"/>
</svg>
