<svg width="520.000000" height="462.000000" viewBox="0 0 520 462" fill="none" xmlns="http://www.w3.org/2000/svg" xmlns:xlink="http://www.w3.org/1999/xlink">
	<desc>
			Created with Pixso.
	</desc>
	<defs>
		<clipPath id="clip2557_3597">
			<rect id="Frame 2087326682" rx="15.500000" width="519.000000" height="461.000000" transform="translate(0.500000 0.500000)" fill="white" fill-opacity="0"/>
		</clipPath>
	</defs>
	<rect id="Frame 2087326682" rx="15.500000" width="519.000000" height="461.000000" transform="translate(0.500000 0.500000)" fill="#0056A4" fill-opacity="1.000000"/>
	<g clip-path="url(#clip2557_3597)">
		<path id="Vector" d="M-112.58 432.97C-112.58 432.97 -117.94 421.76 -113.65 409.84C-109.36 397.93 -101.13 387.77 -107.44 383.84C-113.75 379.9 -118.5 385.91 -117.89 390.76C-117.89 390.76 -126.69 380.55 -121.08 370.98C-115.48 361.38 -99.16 362.13 -91.75 370.98C-84.32 379.82 -85.95 394.52 -97.59 405.77C-109.24 417.03 -112.02 421.98 -112.58 432.97Z" fill="#1460A3" fill-opacity="1.000000" fill-rule="evenodd"/>
		<path id="Vector" d="M-41.45 396.03C-54.93 389.18 -67.87 387.38 -79.47 397.85C-79.47 397.85 -73.25 381.97 -54.47 373.07C-8.61 351.39 -10.19 411.91 -41.45 396.03Z" fill="#1460A3" fill-opacity="1.000000" fill-rule="evenodd"/>
		<path id="Vector" d="M-21.11 446.03C-37.43 442.37 -59.41 435.65 -69.33 421.49C-69.33 421.49 -67.23 444.64 -45.84 465.1C-9.19 500.14 13.1 453.68 -21.11 446.03Z" fill="#1460A3" fill-opacity="1.000000" fill-rule="evenodd"/>
		<path id="Vector" d="M-421.79 240.62C-418.72 257.62 -412.7 280.6 -398.49 291.45C-398.49 291.45 -422.3 288.3 -442.52 265.32C-477.12 226.02 -428.22 204.97 -421.79 240.62Z" fill="#1460A3" fill-opacity="1.000000" fill-rule="evenodd"/>
		<path id="Vector" d="M-351.32 306.07C-358.8 327.02 -371.33 364.42 -362.46 385.62C-362.46 385.62 -382.12 366.13 -387.33 327.12C-396.23 260.65 -335.65 262.13 -351.32 306.07Z" fill="#1460A3" fill-opacity="1.000000" fill-rule="evenodd"/>
		<path id="Vector" d="M-323.03 335.69C-334.58 347.03 -354.63 367.52 -355.56 384.21C-355.56 384.21 -362.24 365.23 -353.27 338.03C-337.99 291.71 -298.86 311.91 -323.03 335.69Z" fill="#1460A3" fill-opacity="1.000000" fill-rule="evenodd"/>
		<path id="Vector" d="M-67.79 406.14C-67.79 406.14 -38.09 404.12 -31 413.62C-23.93 423.12 -34.63 434.23 -45.77 427.17C-56.88 420.1 -59.09 411.6 -67.79 406.14Z" fill="#1460A3" fill-opacity="1.000000" fill-rule="evenodd"/>
		<path id="Vector" d="M-199.66 448.83C-199.66 448.83 -203.27 481.48 -214.97 487.3C-226.66 493.13 -236.65 479.33 -226.78 468.64C-216.94 457.96 -207.29 457.21 -199.66 448.83Z" fill="#1460A3" fill-opacity="1.000000" fill-rule="evenodd"/>
		<path id="Vector" d="M-4.78 426.78C-10.63 426.78 -15.36 431.5 -15.36 437.35C-15.36 443.2 -10.63 447.93 -4.78 447.93C1.07 447.93 5.79 443.2 5.79 437.35C5.79 431.5 1.04 426.78 -4.78 426.78Z" fill="#1460A3" fill-opacity="1.000000" fill-rule="evenodd"/>
		<path id="Vector" d="M-133.85 563.47C-138 563.47 -141.36 566.83 -141.36 570.98C-141.36 575.12 -138 578.48 -133.85 578.48C-129.71 578.48 -126.35 575.12 -126.35 570.98C-126.35 566.83 -129.71 563.47 -133.85 563.47Z" fill="#1460A3" fill-opacity="1.000000" fill-rule="evenodd"/>
		<path id="Vector" d="M-269.87 473.68C-273.59 473.68 -276.62 476.7 -276.62 480.43C-276.62 484.16 -273.59 487.18 -269.87 487.18C-266.14 487.18 -263.12 484.16 -263.12 480.43C-263.12 476.7 -266.14 473.68 -269.87 473.68Z" fill="#1460A3" fill-opacity="1.000000" fill-rule="evenodd"/>
		<path id="Vector" d="M-340.84 253.68C-347.08 255.55 -350.64 262.13 -348.76 268.37C-346.89 274.61 -340.31 278.17 -334.07 276.29C-327.83 274.41 -324.28 267.83 -326.15 261.6C-328.03 255.36 -334.61 251.8 -340.84 253.68Z" fill="#1460A3" fill-opacity="1.000000" fill-rule="evenodd"/>
		<path id="Vector" d="M-393.6 310.45C-392.65 304.9 -396.38 299.61 -401.93 298.66C-407.49 297.71 -412.77 301.44 -413.73 306.99C-414.67 312.55 -410.95 317.83 -405.39 318.78C-399.83 319.74 -394.55 316.01 -393.6 310.45Z" fill="#1460A3" fill-opacity="1.000000" fill-rule="evenodd"/>
		<path id="Vector" d="M-327 238.33C-331.49 239.67 -334.05 244.39 -332.68 248.88C-331.34 253.36 -326.61 255.92 -322.13 254.55C-317.65 253.21 -315.09 248.49 -316.45 244C-317.79 239.52 -322.52 236.99 -327 238.33Z" fill="#1460A3" fill-opacity="1.000000" fill-rule="evenodd"/>
		<path id="Vector" d="M-310.02 234.87C-313.14 235.79 -314.92 239.11 -313.99 242.23C-313.07 245.34 -309.75 247.12 -306.63 246.2C-303.51 245.27 -301.73 241.96 -302.66 238.84C-303.59 235.69 -306.88 233.94 -310.02 234.87Z" fill="#1460A3" fill-opacity="1.000000" fill-rule="evenodd"/>
		<path id="Vector" d="M-73.4 424.05C-73.4 424.05 -95.23 440.64 -93.99 466.18C-92.77 491.69 -78.05 533.18 -106.32 540.88C-141.45 550.44 -149.4 503.09 -159.05 480.38C-169.04 456.87 -195.91 451.41 -195.91 451.41C-188.7 426.07 -161.16 444.2 -152.47 461.5C-142.14 482.04 -131.8 469.37 -138.84 455.77C-152.13 430.11 -151.86 412.4 -140.38 402.41C-125.83 407.06 -117.52 429.92 -119.57 451.29C-121.03 466.57 -108.51 474.41 -108.14 452.04C-107.83 432.65 -90.92 404.36 -73.4 424.05Z" fill="#1460A3" fill-opacity="1.000000" fill-rule="evenodd"/>
		<path id="Vector" d="M-73.3 440.47C-73.3 440.47 -73.89 459.57 -57.42 468.86C-40.94 478.16 -33.1 495.05 -43.26 505.5C-53.39 515.96 -91.14 485.99 -73.3 440.47Z" fill="#1460A3" fill-opacity="1.000000" fill-rule="evenodd"/>
		<path id="Vector" d="M-338.07 379.26C-338.07 379.26 -341.87 391.47 -332.31 403.46C-322.76 415.45 -317.5 428.43 -328.24 434.55C-338.97 440.67 -363.33 412.13 -338.07 379.26Z" fill="#1460A3" fill-opacity="1.000000" fill-rule="evenodd"/>
		<path id="Vector" d="M-238.43 464.64C-238.43 464.64 -248.23 483.01 -233.34 490.28C-213.09 500.14 -224.88 529.02 -244.81 511.35C-254.68 502.58 -261.43 484.57 -238.43 464.64Z" fill="#1460A3" fill-opacity="1.000000" fill-rule="evenodd"/>
		<path id="Vector" d="M-176.23 476.51C-176.23 476.51 -189.12 484.33 -190.02 502.39C-190.92 520.44 -199.67 537.64 -213.92 534.7C-228.17 531.72 -224.18 485.84 -176.23 476.51Z" fill="#1460A3" fill-opacity="1.000000" fill-rule="evenodd"/>
		<path id="Vector" d="M-176.17 374.29C-176.17 374.29 -208.34 380.46 -237.26 352.85C-266.18 325.24 -305.8 322.63 -322.37 345.71C-338.94 368.78 -333.41 402.56 -311.97 412.64C-290.52 422.71 -269.08 414.91 -264.87 394.44C-260.65 373.97 -280.14 365.86 -289.23 368.78C-304.29 373.63 -300.22 396.05 -290.52 394.44C-290.52 394.44 -288.26 388.28 -282.07 389.25C-275.9 390.23 -279.46 411.99 -299.93 404.53C-320.4 397.05 -315.21 367.49 -295.71 359.38C-276.22 351.27 -252.51 362.3 -240.16 369.78C-227.83 377.22 -195.35 392.49 -176.17 374.29Z" fill="#1460A3" fill-opacity="1.000000" fill-rule="evenodd"/>
		<path id="Vector" d="M-177.81 389.23C-177.81 389.23 -192.11 409.7 -217.11 415.54C-242.14 421.39 -257.07 411.65 -259.99 400.92C-262.92 390.2 -247.98 378.82 -230.44 385.99C-212.9 393.13 -193.4 395.42 -177.81 389.23Z" fill="#1460A3" fill-opacity="1.000000" fill-rule="evenodd"/>
		<path id="Vector" d="M-188.21 413.59C-188.21 413.59 -210.95 446.07 -244.08 460.69C-277.22 475.31 -309.39 462.96 -315.55 448.34C-321.72 433.72 -304.17 416.84 -285.34 421.71C-266.5 426.61 -226.22 444.15 -188.21 413.59Z" fill="#1460A3" fill-opacity="1.000000" fill-rule="evenodd"/>
		<path id="Vector" d="M-85.56 476.46C-87.48 500.97 -71.69 521.22 -93.79 542.61C-75.59 550.85 -55.03 526.95 -71.42 515.84C-61.95 500.17 -80.64 498.34 -85.56 476.46Z" fill="#1460A3" fill-opacity="1.000000" fill-rule="evenodd"/>
		<path id="Vector" d="M-105.88 552.29C-140.38 561.59 -169.5 508.84 -166.14 480.16C-186.63 498.73 -192.74 529.46 -161.85 537.38C-157.58 545.1 -139.48 565.84 -105.88 552.29Z" fill="#1460A3" fill-opacity="1.000000" fill-rule="evenodd"/>
		<path id="Vector" d="M-151.54 449.92C-151.54 449.92 -158.49 440.57 -168.11 434.7C-177.74 428.82 -176.66 420.27 -170.79 420.78C-164.9 421.32 -155.81 431.48 -151.54 449.92Z" fill="#1460A3" fill-opacity="1.000000" fill-rule="evenodd"/>
		<path id="Vector" d="M-157.95 600.17C-181.88 571.76 -157.97 553.12 -200.98 537.45C-168.04 531.92 -124.57 572.41 -157.95 600.17Z" fill="#1460A3" fill-opacity="1.000000" fill-rule="evenodd"/>
		<path id="Vector" d="M-279.27 273.46C-279.27 273.46 -293.38 272.37 -294.11 283.6C-294.84 294.81 -279.03 302.68 -269.62 286.28C-260.22 269.88 -277.27 235.62 -306.83 228.58C-344.57 219.61 -350.44 237.6 -352.25 251.95C-354.15 267.13 -376.78 266.91 -372.4 245.05C-383.31 253.14 -373.88 277.22 -389.63 277.09C-412.21 276.92 -433.17 200.46 -351.64 189.91C-351.64 189.91 -389.63 174.71 -403.37 144.69C-435.46 74.61 -339.53 49.44 -329.93 107.8C-326.37 129.48 -341.6 154.34 -365.38 145.42C-332.48 126.83 -372.98 97 -378.42 132.75C-385.9 182.04 -302.27 185.94 -265.92 233.33C-245.98 259.28 -247.11 302.07 -276.05 312.91C-305 323.76 -321.64 303.51 -321.28 278.19C-320.89 252.85 -287.97 244.88 -279.27 273.46Z" fill="#1460A3" fill-opacity="1.000000" fill-rule="evenodd"/>
		<path id="Vector" d="M136.98 192.83C118.46 185.91 87.32 184.28 68.39 191.88C68.39 191.88 84.57 162.33 124.41 156.75C183.72 148.46 175.75 207.33 136.98 192.83Z" fill="#1460A3" fill-opacity="1.000000" fill-rule="evenodd"/>
		<path id="Vector" d="M132.79 145.32C115.69 146.49 90.47 156.38 78.21 169.2C78.21 169.2 80.38 140.01 109.89 121.29C153.8 93.44 168.66 142.86 132.79 145.32Z" fill="#1460A3" fill-opacity="1.000000" fill-rule="evenodd"/>
		<path id="Vector" d="M109.25 102.24C98.85 110.11 86.91 126.92 84.45 140.15C84.45 140.15 73.68 120.66 84.67 96.47C101.04 60.48 131.06 85.77 109.25 102.24Z" fill="#1460A3" fill-opacity="1.000000" fill-rule="evenodd"/>
		<path id="Vector" d="M55.79 370.05C48.7 370.05 42.95 375.8 42.95 382.89C42.95 389.98 48.7 395.73 55.79 395.73C62.88 395.73 68.63 389.98 68.63 382.89C68.63 375.8 62.88 370.05 55.79 370.05Z" fill="#1460A3" fill-opacity="1.000000" fill-rule="evenodd"/>
		<path id="Vector" d="M-18.28 274.29C-24.33 274.29 -29.25 279.19 -29.25 285.26C-29.25 291.3 -24.35 296.22 -18.28 296.22C-12.24 296.22 -7.32 291.32 -7.32 285.26C-7.32 279.19 -12.22 274.29 -18.28 274.29Z" fill="#1460A3" fill-opacity="1.000000" fill-rule="evenodd"/>
		<path id="Vector" d="M-240.94 219.69C-239.84 213.25 -244.13 207.16 -250.57 206.04C-257 204.94 -263.09 209.23 -264.21 215.67C-265.31 222.1 -261.02 228.19 -254.59 229.31C-248.15 230.43 -242.06 226.12 -240.94 219.69Z" fill="#1460A3" fill-opacity="1.000000" fill-rule="evenodd"/>
		<path id="Vector" d="M-190.14 305.6C-189.38 301.29 -192.28 297.2 -196.59 296.46C-200.9 295.71 -205 298.61 -205.73 302.92C-206.46 307.23 -203.59 311.33 -199.27 312.06C-194.96 312.79 -190.87 309.89 -190.14 305.6Z" fill="#1460A3" fill-opacity="1.000000" fill-rule="evenodd"/>
		<path id="Vector" d="M78.58 298.15C72.29 298.15 67.22 303.24 67.22 309.5C67.22 315.76 72.31 320.85 78.58 320.85C84.84 320.85 89.93 315.76 89.93 309.5C89.93 303.24 84.84 298.15 78.58 298.15Z" fill="#1460A3" fill-opacity="1.000000" fill-rule="evenodd"/>
		<path id="Vector" d="M2.06 267.61C-2.27 267.61 -5.81 271.15 -5.81 275.49C-5.81 279.82 -2.27 283.35 2.06 283.35C6.4 283.35 9.93 279.82 9.93 275.49C9.93 271.12 6.4 267.61 2.06 267.61Z" fill="#1460A3" fill-opacity="1.000000" fill-rule="evenodd"/>
		<path id="Vector" d="M-234.09 241.62C-233.29 237.01 -236.39 232.62 -241.01 231.82C-245.62 231.02 -250.01 234.11 -250.81 238.74C-251.61 243.35 -248.52 247.73 -243.89 248.54C-239.26 249.34 -234.87 246.25 -234.09 241.62Z" fill="#1460A3" fill-opacity="1.000000" fill-rule="evenodd"/>
		<path id="Vector" d="M-248.81 159.72C-248.01 155.11 -251.1 150.73 -255.73 149.92C-260.34 149.12 -264.72 152.22 -265.53 156.84C-266.33 161.45 -263.24 165.84 -258.61 166.64C-253.98 167.42 -249.59 164.33 -248.81 159.72Z" fill="#1460A3" fill-opacity="1.000000" fill-rule="evenodd"/>
		<path id="Vector" d="M18.75 261.01C15.73 261.01 13.27 263.47 13.27 266.49C13.27 269.51 15.73 271.98 18.75 271.98C21.78 271.98 24.24 269.51 24.24 266.49C24.24 263.45 21.78 261.01 18.75 261.01Z" fill="#1460A3" fill-opacity="1.000000" fill-rule="evenodd"/>
		<path id="Vector" d="M-233.63 261.01C-233.07 257.79 -235.24 254.72 -238.46 254.19C-241.67 253.63 -244.74 255.8 -245.28 259.01C-245.84 262.23 -243.67 265.3 -240.45 265.84C-237.24 266.4 -234.19 264.23 -233.63 261.01Z" fill="#1460A3" fill-opacity="1.000000" fill-rule="evenodd"/>
		<path id="Vector" d="M-241.99 141.27C-241.43 138.06 -243.6 134.99 -246.81 134.45C-250.03 133.89 -253.1 136.06 -253.64 139.28C-254.19 142.49 -252.03 145.56 -248.81 146.1C-245.59 146.66 -242.52 144.49 -241.99 141.27Z" fill="#1460A3" fill-opacity="1.000000" fill-rule="evenodd"/>
		<path id="Vector" d="M-173.05 413.42C-173.05 413.42 -155.73 386.91 -174.83 349.07C-201 297.2 -167.47 252.24 -123 248.49C-123 248.49 -170.76 276.12 -157 307.67C-143.23 339.25 -134.16 341.64 -133.8 358.23C-133.43 374.85 -146.52 378.38 -146.52 378.38C-146.52 378.38 -135.94 415.88 -173.05 413.42Z" fill="#1460A3" fill-opacity="1.000000" fill-rule="evenodd"/>
		<path id="Vector" d="M-60.85 304.29C-60.85 304.29 -78 292.03 -74.45 277.75C-70.86 263.45 -37.41 265.08 -31.9 300.83C-26.37 336.57 -68.28 369.37 -101.1 357.02C-162.75 333.82 -161.58 247.46 -112.14 248.51C-146.67 249.15 -145.82 319.64 -112.14 333.94C-88.43 344 -83.83 325.7 -82.85 320.51C-81.88 315.3 -81.63 297.78 -60.85 304.29Z" fill="#1460A3" fill-opacity="1.000000" fill-rule="evenodd"/>
		<path id="Vector" d="M-268.45 327.19C-268.45 327.19 -236.94 303.48 -228.17 275.53C-219.4 247.59 -234.68 213.47 -234.68 213.47C-234.68 213.47 -192.77 222.56 -191.13 257.33C-189.5 292.1 -238.89 314.18 -238.89 314.18C-238.89 314.18 -203.15 310.94 -192.11 329.46C-181.07 347.98 -199.91 365.52 -215.18 355.46C-230.46 345.39 -218.42 329.46 -218.42 329.46C-218.42 329.46 -225.56 315.81 -268.45 327.19Z" fill="#1460A3" fill-opacity="1.000000" fill-rule="evenodd"/>
		<path id="Vector" d="M123.9 301.36C122.43 363.3 60.89 351.9 33.01 373.27C11.79 389.52 19.51 401.36 19.51 401.36C19.51 401.36 25.85 389.25 37.15 394.76C48.46 400.27 52.31 426.17 32.18 432.77C12.08 439.37 -12.38 416.47 -6.39 390.35C2.67 350.83 50.72 356.38 85.79 342.57C105.72 334.72 116.88 318.93 112.35 295.03C111.25 298.61 98.65 305.72 91.42 295.29C83.69 284.18 90.32 273 99.55 270.1C110.25 266.76 124.53 274.24 123.9 301.36Z" fill="#1460A3" fill-opacity="1.000000" fill-rule="evenodd"/>
		<path id="Vector" d="M117.85 299.17C117.85 299.17 113.18 325.07 84.52 330.58C55.87 336.08 42.1 319.83 42.64 312.4C43.2 304.97 58.89 309.09 64.13 298.34C69.37 287.59 66.61 274.36 51.46 268.32C36.3 262.25 15.37 277.41 17.56 296.15C19.75 314.89 38.79 331.41 59.16 336.08C79.58 340.76 115.1 336.91 117.85 299.17Z" fill="#1460A3" fill-opacity="1.000000" fill-rule="evenodd"/>
		<path id="Vector" d="M112.64 319.83C112.64 319.83 96.12 340.23 66.37 341.88C36.62 343.54 16.22 329.77 8.52 318.74C0.8 307.72 -0.57 290.08 -0.57 290.08C-9.05 300.83 -8.61 309.28 -4.71 321.49C-4.71 321.49 -16.82 313.5 -26.76 319.29C-27.03 330.6 -11.34 338.57 -11.34 338.57C-19.18 342.13 -29.71 346.34 -30.9 358.96C-30.9 358.96 -11.34 345.73 11.52 348.49C34.4 351.24 90.32 359.21 112.64 319.83Z" fill="#1460A3" fill-opacity="1.000000" fill-rule="evenodd"/>
		<path id="Vector" d="M-88.41 264.91C-96.37 264.59 -99.88 275.75 -92.86 281.19C-85.85 286.62 -76.91 282.14 -79.78 266.2C-82.66 250.24 -102.44 236.52 -124.44 240.98C-146.47 245.44 -161.77 247.05 -170.08 236.84C-178.37 226.63 -162.11 215.79 -166.89 204.29C-171.66 192.81 -190.18 192.15 -194.64 211.94C-202.78 248 -160.09 258.67 -124.76 251.83C-112.38 249.44 -96.06 250.88 -88.41 264.91Z" fill="#1460A3" fill-opacity="1.000000" fill-rule="evenodd"/>
		<path id="Vector" d="M-117.11 253.51C-129.86 254.8 -133.17 278.31 -126.91 300.12C-120.65 321.93 -104.27 330.43 -93.33 316.93C-87.8 310.11 -92.28 296.32 -101.35 285.33C-110.17 274.61 -123.62 266.71 -117.11 253.51Z" fill="#1460A3" fill-opacity="1.000000" fill-rule="evenodd"/>
		<path id="Vector" d="M107.21 216.57C100.92 228.56 108.01 238.94 123.34 258.53C135.93 274.66 134.16 294.76 134.01 302.43C188.27 247.12 140.35 167.96 66.37 204.02C66.37 204.02 91.08 198.58 114.54 209.6C138.03 220.61 140.95 252.53 140.95 252.53C140.95 252.53 128.48 220.98 107.21 216.57Z" fill="#1460A3" fill-opacity="1.000000" fill-rule="evenodd"/>
		<path id="Vector" d="M-156.83 106.04C-165.82 158.5 -157.9 168.03 -130.56 212.45C-123.89 223.32 -126.18 238.16 -143.7 237.62C-162.8 237.03 -164.14 209.38 -147.79 213.81C-147.79 213.81 -152.17 220.37 -146.42 224.22C-140.67 228.04 -133.56 215.47 -148.35 205.63C-168.31 192.32 -198.13 158.94 -170.5 138.62C-167.5 121.9 -163.31 113.47 -156.83 106.04Z" fill="#1460A3" fill-opacity="1.000000" fill-rule="evenodd"/>
		<path id="Vector" d="M-202.25 222.83C-202.25 222.83 -221.13 202.04 -252.86 192.74C-284.58 183.43 -317.96 184.82 -317.96 184.82C-313.75 176.39 -304.39 180.31 -294.89 170.08C-283.97 158.28 -265.87 160.74 -261.36 180.99C-252.05 175.78 -235.99 189.69 -228.54 195.22C-258.05 142.32 -214.04 119.93 -207.19 152C-200.32 184.09 -227.32 187.08 -202.25 222.83Z" fill="#1460A3" fill-opacity="1.000000" fill-rule="evenodd"/>
		<path id="Vector" d="M-398.64 201.22C-374.1 173.9 -424.01 160.62 -418.62 110.94C-440.89 143.42 -439.28 188.57 -406.56 207.87C-412.24 196.51 -419.5 172.61 -420.69 160.04C-420.69 160.01 -411.12 184.14 -398.64 201.22Z" fill="#1460A3" fill-opacity="1.000000" fill-rule="evenodd"/>
		<path id="Vector" d="M-408.39 79.85C-408.39 79.85 -440.99 114.57 -440.5 153.6C-440.01 192.62 -426.95 214.74 -426.95 214.74C-461.82 223.68 -474.37 184.4 -457.41 168.1C-470.93 155.97 -465.06 135.33 -450.27 131.24C-450.25 131.24 -457.39 107.67 -408.39 79.85Z" fill="#1460A3" fill-opacity="1.000000" fill-rule="evenodd"/>
		<path id="Vector" d="M-327.68 173.59C-327.68 173.59 -279.58 159.79 -259.87 135.6C-228.76 97.34 -243.23 28.14 -289.7 9.55C-289.21 30.9 -312.11 36.82 -317.52 51.02C-320.42 58.6 -320.03 74.15 -305.17 84.38C-305.17 84.38 -322.32 84.67 -322.06 106.33C-321.76 127.9 -324.44 158.19 -345.4 170.76C-316.35 162.72 -288.04 112.3 -279.29 84.67C-279.29 84.7 -277.61 144.91 -327.68 173.59Z" fill="#1460A3" fill-opacity="1.000000" fill-rule="evenodd"/>
		<path id="Vector" d="M-181.05 187.6C-206.07 148.78 -177.08 139.23 -171.08 106.41C-169.23 96.27 -171.67 84.4 -176.25 76.51C-186.63 58.6 -208.92 70.1 -191.04 91.96C-184.85 99.53 -182.68 109.74 -186.02 114.67C-187.38 103.46 -198.91 91.96 -205.24 96.59C-194.67 106.33 -204.76 111.18 -198.2 118.76C-191.67 126.34 -191.48 131.19 -193.94 135.96C-199.35 123.61 -207.75 117.01 -212.12 120.59C-203.49 128.29 -212.77 133.7 -205.27 137.3C-199.57 140.06 -193.99 139.4 -194.99 146.37C-195.65 151.17 -213.77 182.92 -181.05 187.6Z" fill="#1460A3" fill-opacity="1.000000" fill-rule="evenodd"/>
		<path id="Vector" d="M-240.06 124.02C-223.37 104.12 -232.88 84.33 -236.94 58.31C-241.21 31.02 -207.22 32.89 -210.65 65.81C-212.85 86.77 -224.91 114.59 -240.06 124.02Z" fill="#1460A3" fill-opacity="1.000000" fill-rule="evenodd"/>
		<path id="Vector" d="M-325.08 83.43C-325.88 62.67 -335.73 43.54 -351.78 34.89C-375.74 22 -389.72 46.29 -365.62 55.7C-351.44 61.23 -337.53 58.31 -325.08 83.43Z" fill="#1460A3" fill-opacity="1.000000" fill-rule="evenodd"/>
		<path id="Vector" d="M-372.69 64.89C-380.81 58.65 -394.65 54.07 -404.15 55.38C-415.84 57.02 -418.35 71.71 -401.18 69.03C-392.4 67.66 -381.71 63.28 -372.69 64.89Z" fill="#1460A3" fill-opacity="1.000000" fill-rule="evenodd"/>
		<path id="Vector" d="M467.1 267.4C453.45 277.07 437.59 285.99 409.79 280.97C417.54 288.23 435.18 300.73 464.68 298.54C515.25 294.78 495.68 247.12 467.1 267.4Z" fill="#1460A3" fill-opacity="1.000000" fill-rule="evenodd"/>
		<path id="Vector" d="M55.06 108.16C48.29 108.16 42.81 113.64 42.81 120.42C42.81 127.19 48.29 132.67 55.06 132.67C61.84 132.67 67.32 127.19 67.32 120.42C67.32 113.64 61.84 108.16 55.06 108.16Z" fill="#1460A3" fill-opacity="1.000000" fill-rule="evenodd"/>
		<path id="Vector" d="M62.52 138.91C57.01 138.91 52.58 143.37 52.58 148.85C52.58 154.36 57.04 158.79 62.52 158.79C68 158.79 72.46 154.34 72.46 148.85C72.48 143.37 68.02 138.91 62.52 138.91Z" fill="#1460A3" fill-opacity="1.000000" fill-rule="evenodd"/>
		<path id="Vector" d="M59.64 164.79C55.4 164.79 51.97 168.22 51.97 172.46C51.97 176.7 55.4 180.14 59.64 180.14C63.88 180.14 67.32 176.7 67.32 172.46C67.32 168.22 63.88 164.79 59.64 164.79Z" fill="#1460A3" fill-opacity="1.000000" fill-rule="evenodd"/>
		<path id="Vector" d="M53.63 184.4C50.24 184.4 47.51 187.16 47.51 190.52C47.51 193.91 50.26 196.64 53.63 196.64C57.01 196.64 59.74 193.88 59.74 190.52C59.74 187.16 57.01 184.4 53.63 184.4Z" fill="#1460A3" fill-opacity="1.000000" fill-rule="evenodd"/>
		<path id="Vector" d="M45.71 199.22C43.08 199.22 40.96 201.34 40.96 203.97C40.96 206.6 43.08 208.72 45.71 208.72C48.34 208.72 50.46 206.6 50.46 203.97C50.46 201.34 48.31 199.22 45.71 199.22Z" fill="#1460A3" fill-opacity="1.000000" fill-rule="evenodd"/>
		<path id="Vector" d="M147.56 15.84C155.53 15.57 162.2 21.83 162.47 29.8C162.74 37.77 156.48 44.44 148.51 44.71C140.54 44.98 133.86 38.72 133.6 30.75C133.33 22.76 139.57 16.08 147.56 15.84Z" fill="#1460A3" fill-opacity="1.000000" fill-rule="evenodd"/>
		<path id="Vector" d="M122.14 3.82C127.87 3.63 132.67 8.14 132.86 13.86C133.06 19.59 128.55 24.39 122.83 24.58C117.1 24.78 112.3 20.27 112.13 14.55C111.91 8.79 116.42 3.99 122.14 3.82Z" fill="#1460A3" fill-opacity="1.000000" fill-rule="evenodd"/>
		<path id="Vector" d="M98.7 0C102.7 -0.12 106.04 3 106.16 6.99C106.28 10.99 103.16 14.33 99.16 14.45C95.17 14.57 91.83 11.45 91.71 7.45C91.56 3.46 94.71 0.12 98.7 0Z" fill="#1460A3" fill-opacity="1.000000" fill-rule="evenodd"/>
		<path id="Vector" d="M362.47 268.01C338.39 226.44 390.37 200.75 350.43 177.46C374.99 137.52 318.36 134.4 312.76 106.29C290.51 150.02 292.15 210.35 328.45 246.03C321.7 220.61 333.08 204.14 325.85 178.51C349.19 200.85 324.16 238.06 362.47 268.01Z" fill="#1460A3" fill-opacity="1.000000" fill-rule="evenodd"/>
		<path id="Vector" d="M230.82 174.8C264.56 103.41 203.67 105.92 205.28 63.62C206.43 33.84 238.47 46.32 238.47 46.32C243.54 17.88 200.26 8.19 194.51 46.61C192.81 57.97 192.81 67.03 192.81 67.03C182.13 63.47 184.35 43.27 169.83 45.2C160.2 46.46 158.2 66.18 170.68 76.68C183.16 87.18 205.28 96.25 205.57 103.63C205.87 111.01 194.22 109.6 191.1 103.92C176.7 125.49 229.65 123.19 230.82 174.8Z" fill="#1460A3" fill-opacity="1.000000" fill-rule="evenodd"/>
		<path id="Vector" d="M445.88 310.87C426.85 305.89 374.6 280.8 390.95 254.87C395.56 247.56 405.55 246.46 410.54 259.65C435.5 248.95 411.89 209.11 381.6 227.82C365.22 237.94 344.05 296.85 445.88 310.87Z" fill="#1460A3" fill-opacity="1.000000" fill-rule="evenodd"/>
		<path id="Vector" d="M-15.41 170.34C-20.04 181.7 -49.91 183.82 -55.81 155.6C-62.9 121.61 -32.44 108.6 -4.32 114.42C-27.88 67.27 21.36 47.17 48.34 60.91C64.78 69.3 66.61 82.09 59.33 90.98C50.36 101.9 29.77 104.97 25.77 83.99C13.27 81.65 2.94 92.74 13.2 110.99C20.78 124.44 49.82 146.34 40.56 181.7C31.3 217.05 -5.73 235.16 -29.3 241.03C-52.86 246.93 -72.23 239.76 -72.23 239.76C-72.23 239.76 -27.57 245.66 2.67 211.99C20.22 192.44 22.48 172.81 17.68 159.67C3.82 121.71 -37.53 146.47 -15.41 170.34Z" fill="#1460A3" fill-opacity="1.000000" fill-rule="evenodd"/>
		<path id="Vector" d="M237.18 192.15C245.85 201.41 238.35 176.53 249.92 164.37C261.49 152.22 278.28 169.59 285.81 198.51C293.34 227.46 322.19 268.86 396.85 296.05C471.51 323.24 510.54 306.89 518.63 296.46C526.75 286.04 514.25 276.63 513.93 269C513.61 261.4 520 258.94 527.72 263.89C520.8 251.19 522.46 244.71 527.33 243.3C538.88 239.91 564.37 263.94 539.81 301.09C539.81 301.09 571.12 287.03 593.12 302.65C615.12 318.27 612.88 342.86 594.85 353.02C571.46 366.18 549.11 332.14 574.6 325.97C573.02 334.48 585.3 336.18 586.05 328.53C587.32 315.76 570.48 307.26 558.4 309.01C530.62 313.06 486.64 335.65 405.6 314.23C324.58 292.81 264.37 238.4 227.33 200.22C173.31 144.52 137.35 56.85 58.28 32.97C9.28 18.15 -49.47 20.73 -50.49 72.93C-50.96 96.27 -60.24 114.35 -76.03 123.2C-67.77 86.35 -113.75 96.1 -94.96 54.19C-94.96 54.19 -122.74 75.66 -117.26 99.22C-111.77 122.78 -89.89 130.36 -91.16 147.61C-92.43 164.86 -107.58 166.13 -115.14 158.97C-122.72 151.8 -123.13 145.49 -123.13 145.49C-123.13 145.49 -124.81 165.69 -107.97 178.31C-91.14 190.93 -81.05 190.52 -79.37 186.3C-77.69 182.09 -89.04 177.9 -82.32 172C-75.59 166.1 -57.9 171.59 -56.22 188.42C-54.54 205.26 -76.42 214.11 -97.03 199.36C-117.65 184.65 -122.72 175.8 -122.72 175.8C-122.72 175.8 -113.87 208.21 -91.99 215.79C-50.88 230.02 -33.36 190.96 -5.71 204.85C-32.41 208.48 -22.52 225.83 -37.26 239.35C-37.26 239.35 -24.64 248.19 21.24 233.45C41.85 226.73 64.17 220.42 83.11 233.04C102.04 245.66 96.97 268.35 82.69 272.17C62.35 277.6 55.57 251.19 74.7 243.57C74.7 243.57 62.08 236.4 37.66 247.78C13.25 259.14 -40.62 276.39 -87.75 245.69C-134.87 214.96 -185.65 84.62 -92.38 29.36C-50.79 4.7 -6.15 -1.39 35.01 6.99C141.78 28.8 169.66 120.13 237.18 192.15Z" fill="#1460A3" fill-opacity="1.000000" fill-rule="evenodd"/>
	</g>
</svg>
