<svg width="222" height="65" viewBox="0 0 222 65" fill="none" xmlns="http://www.w3.org/2000/svg">
<path d="M108.994 1.79883H107.725V48.2834H108.994V1.79883Z" fill="#CFD0D0"/>
<path fill-rule="evenodd" clip-rule="evenodd" d="M182.375 21.437H186.309L179.997 3.89551H175.761L169.475 21.437H173.383L174.17 19.0692H181.591L182.375 21.437ZM175.298 15.6878L177.894 7.88044L180.474 15.6878H175.298Z" fill="#E3000F"/>
<path fill-rule="evenodd" clip-rule="evenodd" d="M152.805 21.437C156.988 21.6227 159.056 20.4117 159.557 14.3299L160.142 7.20339H164.267V21.437H167.88V3.89551H156.969L156.093 14.2718C155.803 17.7422 154.709 18.2838 152.805 18.0092V21.437Z" fill="#E3000F"/>
<path fill-rule="evenodd" clip-rule="evenodd" d="M126.64 21.7891C129.836 21.7891 132.635 20.1603 134.095 17.6532L131.148 15.9239C130.33 17.4521 128.621 18.2955 126.64 18.2955C123.249 18.2955 121.02 16.0244 121.02 12.6663C121.02 9.28486 123.249 7.01384 126.64 7.01384C128.621 7.01384 130.307 7.85338 131.148 9.40867L134.095 7.67929C132.608 5.17225 129.81 3.54346 126.64 3.54346C121.391 3.54346 117.518 7.52839 117.518 12.6663C117.515 17.7809 121.391 21.7891 126.64 21.7891Z" fill="#E3000F"/>
<path fill-rule="evenodd" clip-rule="evenodd" d="M147.361 21.437H150.779V3.89551H148.068L140.093 14.62V3.89551H136.676V21.437H139.386L147.361 10.7357V21.437Z" fill="#E3000F"/>
<path fill-rule="evenodd" clip-rule="evenodd" d="M95.4754 46.2173H99.4094L93.0975 28.6758H88.8615L82.5763 46.2173H86.4835L87.271 43.8495H94.6917L95.4754 46.2173ZM88.3989 40.4681L90.9947 32.6607L93.5753 40.4681H88.3989Z" fill="#008BD2"/>
<path fill-rule="evenodd" clip-rule="evenodd" d="M37.6877 42.9094C37.9707 41.9267 38.1198 40.6809 38.2497 39.1101L38.8347 31.9837H42.9598V42.9094H37.6877ZM46.4656 42.9094V28.6758H35.6615L34.786 39.0521C34.6331 40.8666 34.4113 42.124 33.8914 42.9094H31.8193V48.7978H35.241L35.4589 46.2173H44.6038L44.8217 48.7978H48.2395V42.9094H46.4656Z" fill="#008BD2"/>
<path fill-rule="evenodd" clip-rule="evenodd" d="M77.0397 28.6758V35.6436H70.7124V28.6758H67.1837V46.2173H70.7124V38.9515H77.0397V46.2173H80.5416V28.6758H77.0397Z" fill="#008BD2"/>
<path fill-rule="evenodd" clip-rule="evenodd" d="M60.7423 46.1865H64.1564V28.6411H61.4496L53.4708 39.3695V28.6411H50.0567V46.1865H52.7635L60.7423 35.4852V46.1865Z" fill="#008BD2"/>
<path fill-rule="evenodd" clip-rule="evenodd" d="M6.79366 28.6411H0V46.1826H3.52873V40.7507H6.79366C10.1351 40.7507 12.7118 38.1431 12.7118 34.8623C12.7118 31.5815 10.1351 28.6411 6.79366 28.6411ZM6.79366 37.5202H3.52873V31.8755H6.79366C8.25409 31.8755 9.32074 33.3341 9.32074 34.8623C9.31691 36.3672 8.25409 37.5202 6.79366 37.5202Z" fill="#008BD2"/>
<path fill-rule="evenodd" clip-rule="evenodd" d="M22.7938 46.5347C27.7944 46.5347 31.8087 42.5265 31.8087 37.4119C31.8087 32.274 27.7982 28.2891 22.7938 28.2891C17.7932 28.2891 13.8057 32.274 13.8057 37.4119C13.8057 42.5265 17.7932 46.5347 22.7938 46.5347ZM22.7938 43.0411C19.6474 43.0411 17.3076 40.77 17.3076 37.4119C17.3076 34.0305 19.6512 31.7594 22.7938 31.7594C25.9364 31.7594 28.28 34.0305 28.28 37.4119C28.28 40.77 25.9402 43.0411 22.7938 43.0411Z" fill="#008BD2"/>
<path fill-rule="evenodd" clip-rule="evenodd" d="M200.415 46.1865H203.833V28.6411H201.122L193.147 39.3695V28.6411H189.73V46.1865H192.436L200.415 35.4852V46.1865Z" fill="#E3000F"/>
<path fill-rule="evenodd" clip-rule="evenodd" d="M217.584 46.1865H220.998V28.6411H218.292L210.313 39.3695V28.6411H206.899V46.1865H209.606L217.584 35.4852V46.1865Z" fill="#E3000F"/>
<path fill-rule="evenodd" clip-rule="evenodd" d="M125.379 28.6411H118.589V46.1826H122.114V40.7507H125.379C128.72 40.7507 131.297 38.1431 131.297 34.8623C131.297 31.5815 128.72 28.6411 125.379 28.6411ZM125.379 37.5202H122.114V31.8755H125.379C126.839 31.8755 127.906 33.3341 127.906 34.8623C127.906 36.3672 126.839 37.5202 125.379 37.5202Z" fill="#E3000F"/>
<path fill-rule="evenodd" clip-rule="evenodd" d="M141.379 46.5347C146.38 46.5347 150.394 42.5265 150.394 37.4119C150.394 32.274 146.383 28.2891 141.379 28.2891C136.378 28.2891 132.391 32.274 132.391 37.4119C132.391 42.5265 136.378 46.5347 141.379 46.5347ZM141.379 43.0411C138.233 43.0411 135.893 40.77 135.893 37.4119C135.893 34.0305 138.236 31.7594 141.379 31.7594C144.525 31.7594 146.865 34.0305 146.865 37.4119C146.869 40.77 144.525 43.0411 141.379 43.0411Z" fill="#E3000F"/>
<path fill-rule="evenodd" clip-rule="evenodd" d="M161.76 46.5347C165.059 46.5347 167.926 44.7937 169.494 42.1396L166.497 40.4102C165.564 42.0506 163.836 43.0411 161.76 43.0411C158.613 43.0411 156.274 40.77 156.274 37.4119C156.274 34.0305 158.617 31.7594 161.76 31.7594C163.809 31.7594 165.518 32.7228 166.458 34.3322L169.414 32.5448C167.827 29.9643 165.002 28.2891 161.756 28.2891C156.755 28.2891 152.768 32.274 152.768 37.4119C152.772 42.5265 156.759 46.5347 161.76 46.5347Z" fill="#E3000F"/>
<path fill-rule="evenodd" clip-rule="evenodd" d="M179.931 46.5347C183.23 46.5347 186.098 44.7937 187.665 42.1396L184.668 40.4102C183.735 42.0506 182.007 43.0411 179.931 43.0411C176.784 43.0411 174.445 40.77 174.445 37.4119C174.445 34.0305 176.788 31.7594 179.931 31.7594C181.98 31.7594 183.689 32.7228 184.633 34.3322L187.589 32.5448C186.002 29.9643 183.177 28.2891 179.931 28.2891C174.93 28.2891 170.943 32.274 170.943 37.4119C170.939 42.5265 174.926 46.5347 179.931 46.5347Z" fill="#E3000F"/>
<path fill-rule="evenodd" clip-rule="evenodd" d="M31.6287 3.896H27.8935L22.7247 12.1909L17.5291 3.896H13.7939V21.4375H17.4297V10.3067L22.308 17.9826H23.1414L28.0197 10.2835V21.4375H31.6287V3.896Z" fill="#008BD2"/>
<path fill-rule="evenodd" clip-rule="evenodd" d="M45.6638 21.4375H49.5978L43.2858 3.896H39.0498L32.7646 21.4375H36.6718L37.4594 19.0697H44.8801L45.6638 21.4375ZM38.5872 15.6883L41.1831 7.88093L43.7637 15.6883H38.5872Z" fill="#008BD2"/>
<path fill-rule="evenodd" clip-rule="evenodd" d="M79.9302 21.4375H83.8642L77.5523 3.896H73.3201L67.0349 21.4375H70.9421L71.7297 19.0697H79.1503L79.9302 21.4375ZM72.8537 15.6883L75.4495 7.88093L78.0301 15.6883H72.8537Z" fill="#008BD2"/>
<path fill-rule="evenodd" clip-rule="evenodd" d="M50.3614 21.4375C54.5439 21.6232 56.6122 20.4122 57.113 14.3303L57.698 7.20388H61.8231V21.4375H65.4359V3.896H54.5248L53.6493 14.2723C53.3549 17.7427 52.2653 18.2843 50.3614 18.0096V21.4375Z" fill="#008BD2"/>
<path fill-rule="evenodd" clip-rule="evenodd" d="M97.8489 3.896H90.478C87.2857 3.896 84.7089 6.83633 84.7089 10.0436C84.7089 12.3998 86.2687 14.5044 88.4479 15.3053L84.2119 21.4375H88.1612L92.1487 15.6806H94.324V21.4375H97.8527V3.896H97.8489ZM90.478 12.6474C89.1934 12.6474 88.1267 11.4945 88.1267 10.0398C88.1267 8.58506 89.1934 7.1265 90.478 7.1265H94.324V12.6474H90.478Z" fill="#008BD2"/>
<path fill-rule="evenodd" clip-rule="evenodd" d="M3.19562 57.4487C3.58175 57.2049 3.83026 56.791 3.83026 56.2841C3.83026 55.4794 3.18033 54.814 2.37748 54.814H0.198303V60.2846H2.55334C3.38678 60.2846 4.05964 59.6036 4.05964 58.7602C4.06347 58.1528 3.70792 57.6653 3.19562 57.4487ZM2.37748 55.3285C2.8783 55.3285 3.28737 55.758 3.28737 56.2803C3.28737 56.8103 2.8783 57.232 2.37748 57.232H0.741184V55.3247H2.37748V55.3285ZM2.55716 59.77H0.741184V57.7543H2.55716C3.08857 57.7543 3.52441 58.207 3.52441 58.7641C3.52058 59.3251 3.08857 59.77 2.55716 59.77ZM9.21702 60.3774C10.2301 60.3774 11.1171 59.8396 11.5568 59.0233L11.0789 58.7486C10.7463 59.4063 10.0275 59.8435 9.21702 59.8435C7.84834 59.8435 6.92315 58.8183 6.92315 57.5454C6.92315 56.2725 7.84834 55.2473 9.21702 55.2473C10.0275 55.2473 10.7463 55.6845 11.0789 56.3422L11.5568 56.0598C11.1095 55.2473 10.2187 54.7134 9.21702 54.7134C7.55779 54.7134 6.38409 55.9785 6.38409 57.5415C6.38409 59.1046 7.55396 60.3774 9.21702 60.3774ZM14.6879 59.77V57.7853H17.0812V57.2707H14.6879V55.3324H17.2723V54.814H14.145V60.2846H17.3105V59.77H14.6879ZM21.8715 54.814H19.9408V60.2846H20.4799V58.2534H21.8715C22.8464 58.2534 23.569 57.5106 23.569 56.5356C23.569 55.5491 22.8464 54.814 21.8715 54.814ZM21.8715 57.735H20.4799V55.3285H21.8715C22.5444 55.3285 23.0299 55.8276 23.0299 56.5318C23.0299 57.2282 22.5444 57.735 21.8715 57.735ZM28.6461 60.3774C30.2212 60.3774 31.4407 59.1123 31.4407 57.5493C31.4407 55.9862 30.2212 54.7211 28.6461 54.7211C27.0709 54.7211 25.8514 55.9862 25.8514 57.5493C25.8514 59.1123 27.0709 60.3774 28.6461 60.3774ZM28.6461 59.8474C27.3653 59.8474 26.3904 58.8221 26.3904 57.5493C26.3904 56.2764 27.3653 55.2512 28.6461 55.2512C29.9268 55.2512 30.9017 56.2764 30.9017 57.5493C30.9017 58.8221 29.9306 59.8474 28.6461 59.8474ZM36.5981 60.3774C37.6112 60.3774 38.4982 59.8396 38.9379 59.0233L38.46 58.7486C38.1274 59.4063 37.4086 59.8435 36.5981 59.8435C35.2294 59.8435 34.3043 58.8183 34.3043 57.5454C34.3043 56.2725 35.2294 55.2473 36.5981 55.2473C37.4086 55.2473 38.1274 55.6845 38.46 56.3422L38.9379 56.0598C38.4906 55.2473 37.5998 54.7134 36.5981 54.7134C34.9389 54.7134 33.7652 55.9785 33.7652 57.5415C33.7652 59.1046 34.9389 60.3774 36.5981 60.3774ZM44.0532 60.3774C45.0663 60.3774 45.9533 59.8396 46.3929 59.0233L45.915 58.7486C45.5824 59.4063 44.8637 59.8435 44.0532 59.8435C42.6845 59.8435 41.7593 58.8183 41.7593 57.5454C41.7593 56.2725 42.6845 55.2473 44.0532 55.2473C44.8637 55.2473 45.5824 55.6845 45.915 56.3422L46.3929 56.0598C45.9456 55.2473 45.0548 54.7134 44.0532 54.7134C42.394 54.7134 41.2203 55.9785 41.2203 57.5415C41.2203 59.1046 42.394 60.3774 44.0532 60.3774ZM52.4602 60.2846H52.9993V54.814H52.5367L49.524 59.2709V54.814H48.985V60.2846H49.4476L52.4602 55.8276V60.2846ZM59.4106 60.2846H59.9497V54.814H59.4871L56.4745 59.2709V54.814H55.9354V60.2846H56.398L59.4106 55.8276V60.2846ZM65.4167 60.3774C66.4298 60.3774 67.3168 59.8396 67.7565 59.0233L67.2786 58.7486C66.946 59.4063 66.2272 59.8435 65.4167 59.8435C64.048 59.8435 63.1228 58.8183 63.1228 57.5454C63.1228 56.2725 64.048 55.2473 65.4167 55.2473C66.2272 55.2473 66.946 55.6845 67.2786 56.3422L67.7565 56.0598C67.3092 55.2473 66.4184 54.7134 65.4167 54.7134C63.7575 54.7134 62.5838 55.9785 62.5838 57.5415C62.5838 59.1046 63.7537 60.3774 65.4167 60.3774ZM74.1296 60.2846L71.4572 57.4719L74.0531 54.814H73.342L70.8838 57.3171V54.814H70.3447V60.2846H70.8838V57.6344L73.4185 60.2846H74.1296ZM80.0019 60.2846H80.5409V54.814H80.0783L77.0657 59.2709V54.814H76.5267V60.2846H76.9893L80.0019 55.8276V60.2846ZM86.9561 60.2846H87.4952V54.814H87.0326L84.02 59.2709V54.814H83.4809V60.2846H83.9435L86.9561 55.8276V60.2846ZM99.2397 54.814H98.5669L96.7662 57.8626L94.9655 54.814H94.2926V60.2846H94.8317V55.6419L96.7241 58.8453H96.8006L98.693 55.6419V60.2846H99.2321V54.814H99.2397ZM105.326 54.814L103.904 58.176L102.344 54.814H101.786L103.648 58.7834L103.541 59.0427C103.292 59.6307 102.937 59.8474 102.359 59.7855V60.2846C103.185 60.3387 103.72 59.9557 104.084 59.0891L105.884 54.814H105.326ZM111.757 54.814V57.2127H108.82V54.814H108.281V60.2846H108.82V57.7272H111.757V60.2846H112.296V54.814H111.757ZM118.711 60.2846H119.25V54.814H118.787L115.775 59.2709V54.814H115.236V60.2846H115.698L118.711 55.8276V60.2846ZM126.051 59.77V54.814H125.512V59.77H122.733V54.814H122.194V60.2846H126.093V61.333H126.632V59.77H126.051ZM132.696 60.2846H133.235V54.814H132.772L129.76 59.2709V54.814H129.221V60.2846H129.683L132.696 55.8276V60.2846ZM140.032 54.814H136.171V60.2846H136.71V55.3285H139.489V60.2846H140.028V54.814H140.032ZM146.57 60.2846H147.139L145.064 54.814H144.509L142.433 60.2846H143.003L143.504 58.9382H146.069L146.57 60.2846ZM143.699 58.4236L144.788 55.491L145.878 58.4236H143.699ZM149.036 60.2846C150.049 60.3697 150.703 59.9015 150.703 57.8704V55.3285H153.126V60.2846H153.666V54.814H150.16V57.8549C150.16 59.4721 149.743 59.8938 149.032 59.801V60.2846H149.036ZM158.54 56.8451H157.148V54.814H156.609V60.2846H158.54C159.515 60.2846 160.237 59.5495 160.237 58.5668C160.237 57.588 159.511 56.8451 158.54 56.8451ZM158.54 59.77H157.148V57.3636H158.54C159.213 57.3636 159.698 57.8704 159.698 58.5668C159.698 59.2671 159.213 59.77 158.54 59.77ZM166.343 54.814V57.2127H163.407V54.814H162.868V60.2846H163.407V57.7272H166.343V60.2846H166.882V54.814H166.343ZM169.822 60.2846H171.753C172.728 60.2846 173.45 59.5495 173.45 58.5668C173.45 57.588 172.724 56.849 171.753 56.849H170.361V54.814H169.822V60.2846ZM174.031 60.2846H174.57V54.814H174.031V60.2846ZM170.361 59.77V57.3636H171.753C172.426 57.3636 172.911 57.8704 172.911 58.5668C172.911 59.2709 172.426 59.77 171.753 59.77H170.361ZM180.982 60.2846H181.521V54.814H181.058L178.046 59.2709V54.814H177.506V60.2846H177.969L180.982 55.8276V60.2846ZM193.682 57.5493C193.682 56.2222 192.592 55.5026 191.078 55.4291V54.814H190.539V55.433C189.025 55.5026 187.936 56.2222 187.936 57.5531C187.936 58.8802 189.025 59.5998 190.539 59.6733V60.2923H191.078V59.6733C192.596 59.5959 193.682 58.8763 193.682 57.5493ZM188.479 57.5493C188.479 56.5085 189.327 55.994 190.539 55.9321V59.1665C189.327 59.1046 188.479 58.59 188.479 57.5493ZM191.082 59.1665V55.9321C192.294 55.994 193.143 56.5085 193.143 57.5493C193.143 58.59 192.294 59.1046 191.082 59.1665ZM198.721 60.3774C200.296 60.3774 201.516 59.1123 201.516 57.5493C201.516 55.9862 200.296 54.7211 198.721 54.7211C197.146 54.7211 195.926 55.9862 195.926 57.5493C195.926 59.1123 197.146 60.3774 198.721 60.3774ZM198.721 59.8474C197.44 59.8474 196.465 58.8221 196.465 57.5493C196.465 56.2764 197.44 55.2512 198.721 55.2512C200.002 55.2512 200.976 56.2764 200.976 57.5493C200.976 58.8221 200.005 59.8474 198.721 59.8474ZM206.076 54.814H204.146V60.2846H204.685V58.2534H206.076C207.051 58.2534 207.774 57.5106 207.774 56.5356C207.778 55.5491 207.051 54.814 206.076 54.814ZM206.076 57.735H204.685V55.3285H206.076C206.749 55.3285 207.235 55.8276 207.235 56.5318C207.235 57.2282 206.749 57.735 206.076 57.735ZM213.325 54.814L211.903 58.176L210.343 54.814H209.789L211.651 58.7834L211.544 59.0427C211.295 59.6307 210.939 59.8474 210.362 59.7855V60.2846C211.188 60.3387 211.723 59.9557 212.086 59.0891L213.887 54.814H213.325ZM221.22 54.814H220.547L218.746 57.8626L216.946 54.814H216.273V60.2846H216.812V55.6419L218.704 58.8453H218.781L220.673 55.6419V60.2846H221.212V54.814H221.22Z" fill="white"/>
<path fill-rule="evenodd" clip-rule="evenodd" d="M180.465 53.0884C180.465 53.0884 179.77 54.2452 179.238 54.2606C178.707 54.2761 178.577 53.5836 179.124 53.3592C179.67 53.1309 180.041 53.2702 180.465 53.0884Z" fill="white"/>
<path fill-rule="evenodd" clip-rule="evenodd" d="M86.807 53.0884C86.807 53.0884 85.9851 54.4618 85.3543 54.4773C84.7234 54.4928 84.5667 53.6764 85.2166 53.4056C85.8666 53.1348 86.3024 53.305 86.807 53.0884Z" fill="white"/>
<path fill-rule="evenodd" clip-rule="evenodd" d="M58.9408 53.0884C58.9408 53.0884 58.1188 54.4618 57.488 54.4773C56.8572 54.4928 56.7004 53.6764 57.3504 53.4056C58.0003 53.1387 58.4361 53.305 58.9408 53.0884Z" fill="white"/>
</svg>
