<svg width="195" height="53" viewBox="0 0 195 53" fill="none" xmlns="http://www.w3.org/2000/svg">
<path d="M95.738 0.726074H94.623V41.5418H95.738V0.726074Z" fill="#CFD0D0"/>
<path fill-rule="evenodd" clip-rule="evenodd" d="M160.194 17.9697H163.649L158.105 2.56738H154.384L148.863 17.9697H152.295L152.987 15.8906H159.505L160.194 17.9697ZM153.978 12.9216L156.258 6.06635L158.525 12.9216H153.978Z" fill="#E3000F"/>
<path fill-rule="evenodd" clip-rule="evenodd" d="M134.221 17.9697C137.895 18.1327 139.711 17.0694 140.151 11.7292L140.665 5.47187H144.289V17.9697H147.462V2.56738H137.878L137.109 11.6783C136.854 14.7255 135.893 15.201 134.221 14.9599V17.9697Z" fill="#E3000F"/>
<path fill-rule="evenodd" clip-rule="evenodd" d="M111.238 18.2788C114.046 18.2788 116.504 16.8487 117.786 14.6474L115.197 13.1289C114.479 14.4707 112.978 15.2113 111.238 15.2113C108.259 15.2113 106.302 13.2172 106.302 10.2686C106.302 7.29953 108.259 5.30546 111.238 5.30546C112.978 5.30546 114.459 6.04263 115.197 7.40825L117.786 5.88976C116.48 3.68846 114.022 2.2583 111.238 2.2583C106.627 2.2583 103.226 5.75727 103.226 10.2686C103.222 14.7595 106.627 18.2788 111.238 18.2788Z" fill="#E3000F"/>
<path fill-rule="evenodd" clip-rule="evenodd" d="M129.439 17.9697H132.441V2.56738H130.06L123.055 11.984V2.56738H120.053V17.9697H122.434L129.439 8.57338V17.9697Z" fill="#E3000F"/>
<path fill-rule="evenodd" clip-rule="evenodd" d="M83.8636 39.728H87.3191L81.7748 24.3257H78.054L72.5332 39.728H75.9652L76.657 37.649H83.1751L83.8636 39.728ZM77.6476 34.6799L79.9278 27.8247L82.1946 34.6799H77.6476Z" fill="#008BD2"/>
<path fill-rule="evenodd" clip-rule="evenodd" d="M33.1041 36.8235C33.3526 35.9606 33.4836 34.8668 33.5978 33.4876L34.1115 27.2302H37.735V36.8235H33.1041ZM40.8144 36.8235V24.3257H31.3243L30.5553 33.4366C30.421 35.0298 30.2262 36.1339 29.7695 36.8235H27.9494V41.9938H30.9549L31.1463 39.728H39.179L39.3704 41.9938H42.3726V36.8235H40.8144Z" fill="#008BD2"/>
<path fill-rule="evenodd" clip-rule="evenodd" d="M67.67 24.3257V30.4438H62.1123V24.3257H59.0127V39.728H62.1123V33.3483H67.67V39.728H70.746V24.3257H67.67Z" fill="#008BD2"/>
<path fill-rule="evenodd" clip-rule="evenodd" d="M53.3547 39.7006H56.3536V24.2949H53.976L46.9676 33.715V24.2949H43.9688V39.7006H46.3463L53.3547 30.3043V39.7006Z" fill="#008BD2"/>
<path fill-rule="evenodd" clip-rule="evenodd" d="M5.96741 24.2949H0V39.6972H3.09956V34.9277H5.96741C8.90242 34.9277 11.1658 32.6381 11.1658 29.7574C11.1658 26.8767 8.90242 24.2949 5.96741 24.2949ZM5.96741 32.0912H3.09956V27.1349H5.96741C7.25021 27.1349 8.18713 28.4156 8.18713 29.7574C8.18377 31.0788 7.25021 32.0912 5.96741 32.0912Z" fill="#008BD2"/>
<path fill-rule="evenodd" clip-rule="evenodd" d="M20.0219 40.0064C24.4144 40.0064 27.9404 36.487 27.9404 31.9961C27.9404 27.4848 24.4177 23.9858 20.0219 23.9858C15.6295 23.9858 12.127 27.4848 12.127 31.9961C12.127 36.487 15.6295 40.0064 20.0219 40.0064ZM20.0219 36.9388C17.2582 36.9388 15.203 34.9448 15.203 31.9961C15.203 29.0271 17.2615 27.033 20.0219 27.033C22.7823 27.033 24.8409 29.0271 24.8409 31.9961C24.8409 34.9448 22.7857 36.9388 20.0219 36.9388Z" fill="#008BD2"/>
<path fill-rule="evenodd" clip-rule="evenodd" d="M176.04 39.7006H179.042V24.2949H176.662L169.657 33.715V24.2949H166.654V39.7006H169.032L176.04 30.3043V39.7006Z" fill="#E3000F"/>
<path fill-rule="evenodd" clip-rule="evenodd" d="M191.121 39.7006H194.12V24.2949H191.743L184.734 33.715V24.2949H181.735V39.7006H184.113L191.121 30.3043V39.7006Z" fill="#E3000F"/>
<path fill-rule="evenodd" clip-rule="evenodd" d="M110.13 24.2949H104.166V39.6972H107.262V34.9277H110.13C113.065 34.9277 115.329 32.6381 115.329 29.7574C115.329 26.8767 113.065 24.2949 110.13 24.2949ZM110.13 32.0912H107.262V27.1349H110.13C111.413 27.1349 112.35 28.4156 112.35 29.7574C112.35 31.0788 111.413 32.0912 110.13 32.0912Z" fill="#E3000F"/>
<path fill-rule="evenodd" clip-rule="evenodd" d="M124.184 40.0064C128.576 40.0064 132.102 36.487 132.102 31.9961C132.102 27.4848 128.58 23.9858 124.184 23.9858C119.791 23.9858 116.289 27.4848 116.289 31.9961C116.289 36.487 119.791 40.0064 124.184 40.0064ZM124.184 36.9388C121.42 36.9388 119.365 34.9448 119.365 31.9961C119.365 29.0271 121.424 27.033 124.184 27.033C126.948 27.033 129.003 29.0271 129.003 31.9961C129.006 34.9448 126.948 36.9388 124.184 36.9388Z" fill="#E3000F"/>
<path fill-rule="evenodd" clip-rule="evenodd" d="M142.086 40.0064C144.984 40.0064 147.503 38.4777 148.879 36.1473L146.247 34.6288C145.427 36.0692 143.909 36.9388 142.086 36.9388C139.322 36.9388 137.267 34.9448 137.267 31.9961C137.267 29.0271 139.325 27.033 142.086 27.033C143.886 27.033 145.387 27.8789 146.213 29.292L148.809 27.7226C147.415 25.4568 144.934 23.9858 142.083 23.9858C137.69 23.9858 134.188 27.4848 134.188 31.9961C134.191 36.487 137.693 40.0064 142.086 40.0064Z" fill="#E3000F"/>
<path fill-rule="evenodd" clip-rule="evenodd" d="M158.047 40.0064C160.945 40.0064 163.464 38.4777 164.841 36.1473L162.208 34.6288C161.389 36.0692 159.871 36.9388 158.047 36.9388C155.284 36.9388 153.228 34.9448 153.228 31.9961C153.228 29.0271 155.287 27.033 158.047 27.033C159.847 27.033 161.348 27.8789 162.178 29.292L164.774 27.7226C163.38 25.4568 160.898 23.9858 158.047 23.9858C153.655 23.9858 150.152 27.4848 150.152 31.9961C150.149 36.487 153.652 40.0064 158.047 40.0064Z" fill="#E3000F"/>
<path fill-rule="evenodd" clip-rule="evenodd" d="M27.782 2.56738H24.5011L19.9609 9.85067L15.3972 2.56738H12.1163V17.9697H15.3099V8.1963L19.5949 14.9361H20.3269L24.6119 8.17592V17.9697H27.782V2.56738Z" fill="#008BD2"/>
<path fill-rule="evenodd" clip-rule="evenodd" d="M40.1097 17.9697H43.5653L38.021 2.56738H34.3002L28.7794 17.9697H32.2114L32.9032 15.8906H39.4213L40.1097 17.9697ZM33.8938 12.9216L36.174 6.06635L38.4407 12.9216H33.8938Z" fill="#008BD2"/>
<path fill-rule="evenodd" clip-rule="evenodd" d="M70.209 17.9697H73.6645L68.1202 2.56738H64.4028L58.882 17.9697H62.314L63.0058 15.8906H69.524L70.209 17.9697ZM63.9931 12.9216L66.2733 6.06635L68.54 12.9216H63.9931Z" fill="#008BD2"/>
<path fill-rule="evenodd" clip-rule="evenodd" d="M44.2364 17.9697C47.9102 18.1327 49.727 17.0694 50.1669 11.7292L50.6807 5.47187H54.3041V17.9697H57.4775V2.56738H47.8934L47.1244 11.6783C46.8658 14.7255 45.9088 15.201 44.2364 14.9599V17.9697Z" fill="#008BD2"/>
<path fill-rule="evenodd" clip-rule="evenodd" d="M85.9481 2.56738H79.4737C76.6696 2.56738 74.4062 5.14914 74.4062 7.96531C74.4062 10.0341 75.7763 11.8821 77.6905 12.5853L73.9697 17.9697H77.4386L80.9412 12.9148H82.8519V17.9697H85.9515V2.56738H85.9481ZM79.4737 10.2515C78.3453 10.2515 77.4084 9.2392 77.4084 7.96191C77.4084 6.68461 78.3453 5.40392 79.4737 5.40392H82.8519V10.2515H79.4737Z" fill="#008BD2"/>
<path fill-rule="evenodd" clip-rule="evenodd" d="M2.80667 49.5892C3.14584 49.3752 3.36412 49.0117 3.36412 48.5667C3.36412 47.8601 2.79324 47.2758 2.08803 47.2758H0.173889V52.0793H2.2425C2.97457 52.0793 3.56561 51.4814 3.56561 50.7408C3.56896 50.2075 3.25666 49.7795 2.80667 49.5892ZM2.08803 47.7276C2.52794 47.7276 2.88726 48.1047 2.88726 48.5633C2.88726 49.0287 2.52794 49.399 2.08803 49.399H0.650744V47.7242H2.08803V47.7276ZM2.24586 51.6275H0.650744V49.8576H2.24586C2.71264 49.8576 3.09547 50.255 3.09547 50.7442C3.09211 51.2368 2.71264 51.6275 2.24586 51.6275ZM8.09573 52.1608C8.98564 52.1608 9.76473 51.6886 10.1509 50.9718L9.73114 50.7306C9.43899 51.3081 8.80766 51.692 8.09573 51.692C6.89352 51.692 6.08085 50.7918 6.08085 49.6742C6.08085 48.5565 6.89352 47.6563 8.09573 47.6563C8.80766 47.6563 9.43899 48.0402 9.73114 48.6177L10.1509 48.3697C9.75801 47.6563 8.97556 47.1875 8.09573 47.1875C6.6383 47.1875 5.60735 48.2983 5.60735 49.6708C5.60735 51.0432 6.63494 52.1608 8.09573 52.1608ZM12.9012 51.6275V49.8848H15.0034V49.433H12.9012V47.731H15.1713V47.2758H12.4244V52.0793H15.2049V51.6275H12.9012ZM19.2112 47.2758H17.5153V52.0793H17.9888V50.2958H19.2112C20.0675 50.2958 20.7022 49.6436 20.7022 48.7875C20.7022 47.9213 20.0675 47.2758 19.2112 47.2758ZM19.2112 49.8406H17.9888V47.7276H19.2112C19.8022 47.7276 20.2287 48.1659 20.2287 48.7841C20.2287 49.3956 19.8022 49.8406 19.2112 49.8406ZM25.1618 52.1608C26.5453 52.1608 27.6166 51.05 27.6166 49.6776C27.6166 48.3051 26.5453 47.1943 25.1618 47.1943C23.7782 47.1943 22.707 48.3051 22.707 49.6776C22.707 51.05 23.7782 52.1608 25.1618 52.1608ZM25.1618 51.6954C24.0368 51.6954 23.1805 50.7952 23.1805 49.6776C23.1805 48.5599 24.0368 47.6597 25.1618 47.6597C26.2868 47.6597 27.1431 48.5599 27.1431 49.6776C27.1431 50.7952 26.2901 51.6954 25.1618 51.6954ZM32.1467 52.1608C33.0366 52.1608 33.8157 51.6886 34.2019 50.9718L33.7821 50.7306C33.49 51.3081 32.8586 51.692 32.1467 51.692C30.9445 51.692 30.1318 50.7918 30.1318 49.6742C30.1318 48.5565 30.9445 47.6563 32.1467 47.6563C32.8586 47.6563 33.49 48.0402 33.7821 48.6177L34.2019 48.3697C33.809 47.6563 33.0265 47.1875 32.1467 47.1875C30.6893 47.1875 29.6583 48.2983 29.6583 49.6708C29.6583 51.0432 30.6893 52.1608 32.1467 52.1608ZM38.6951 52.1608C39.585 52.1608 40.3641 51.6886 40.7502 50.9718L40.3305 50.7306C40.0383 51.3081 39.407 51.692 38.6951 51.692C37.4929 51.692 36.6802 50.7918 36.6802 49.6742C36.6802 48.5565 37.4929 47.6563 38.6951 47.6563C39.407 47.6563 40.0383 48.0402 40.3305 48.6177L40.7502 48.3697C40.3573 47.6563 39.5749 47.1875 38.6951 47.1875C37.2376 47.1875 36.2067 48.2983 36.2067 49.6708C36.2067 51.0432 37.2376 52.1608 38.6951 52.1608ZM46.0796 52.0793H46.5531V47.2758H46.1468L43.5006 51.1892V47.2758H43.0271V52.0793H43.4334L46.0796 48.1659V52.0793ZM52.1847 52.0793H52.6582V47.2758H52.2519L49.6056 51.1892V47.2758H49.1322V52.0793H49.5385L52.1847 48.1659V52.0793ZM57.4603 52.1608C58.3502 52.1608 59.1293 51.6886 59.5155 50.9718L59.0957 50.7306C58.8036 51.3081 58.1723 51.692 57.4603 51.692C56.2581 51.692 55.4454 50.7918 55.4454 49.6742C55.4454 48.5565 56.2581 47.6563 57.4603 47.6563C58.1723 47.6563 58.8036 48.0402 59.0957 48.6177L59.5155 48.3697C59.1226 47.6563 58.3402 47.1875 57.4603 47.1875C56.0029 47.1875 54.972 48.2983 54.972 49.6708C54.972 51.0432 55.9995 52.1608 57.4603 52.1608ZM65.1135 52.0793L62.7662 49.6096L65.0464 47.2758H64.4217L62.2625 49.4737V47.2758H61.789V52.0793H62.2625V49.7523L64.4889 52.0793H65.1135ZM70.2716 52.0793H70.7451V47.2758H70.3388L67.6926 51.1892V47.2758H67.2191V52.0793H67.6254L70.2716 48.1659V52.0793ZM76.3801 52.0793H76.8536V47.2758H76.4472L73.801 51.1892V47.2758H73.3275V52.0793H73.7339L76.3801 48.1659V52.0793ZM87.1698 47.2758H86.5787L84.997 49.9527L83.4154 47.2758H82.8243V52.0793H83.2978V48.0028L84.9601 50.8156H85.0273L86.6895 48.0028V52.0793H87.163V47.2758H87.1698ZM92.5159 47.2758L91.2667 50.2279L89.8966 47.2758H89.4063L91.0417 50.7612L90.9477 50.9888C90.7294 51.5052 90.4171 51.6954 89.91 51.6411V52.0793C90.6354 52.1268 91.1055 51.7905 91.4245 51.0296L93.0062 47.2758H92.5159ZM98.1643 47.2758V49.382H95.5852V47.2758H95.1117V52.0793H95.5852V49.8338H98.1643V52.0793H98.6378V47.2758H98.1643ZM104.273 52.0793H104.746V47.2758H104.34L101.694 51.1892V47.2758H101.22V52.0793H101.627L104.273 48.1659V52.0793ZM110.72 51.6275V47.2758H110.247V51.6275H107.806V47.2758H107.332V52.0793H110.757V52.9999H111.231V51.6275H110.72ZM116.557 52.0793H117.03V47.2758H116.624L113.978 51.1892V47.2758H113.504V52.0793H113.911L116.557 48.1659V52.0793ZM123.001 47.2758H119.609V52.0793H120.083V47.7276H122.524V52.0793H122.998V47.2758H123.001ZM128.743 52.0793H129.244L127.42 47.2758H126.933L125.11 52.0793H125.61L126.05 50.8971H128.304L128.743 52.0793ZM126.222 50.4453L127.179 47.8703L128.136 50.4453H126.222ZM130.909 52.0793C131.799 52.154 132.374 51.743 132.374 49.9595V47.7276H134.503V52.0793H134.976V47.2758H131.897V49.9459C131.897 51.3659 131.531 51.7362 130.906 51.6546V52.0793H130.909ZM139.258 49.0593H138.035V47.2758H137.562V52.0793H139.258C140.114 52.0793 140.749 51.4338 140.749 50.571C140.749 49.7115 140.111 49.0593 139.258 49.0593ZM139.258 51.6275H138.035V49.5145H139.258C139.849 49.5145 140.275 49.9595 140.275 50.571C140.275 51.1858 139.849 51.6275 139.258 51.6275ZM146.112 47.2758V49.382H143.533V47.2758H143.059V52.0793H143.533V49.8338H146.112V52.0793H146.585V47.2758H146.112ZM149.168 52.0793H150.864C151.72 52.0793 152.355 51.4338 152.355 50.571C152.355 49.7115 151.716 49.0627 150.864 49.0627H149.641V47.2758H149.168V52.0793ZM152.865 52.0793H153.338V47.2758H152.865V52.0793ZM149.641 51.6275V49.5145H150.864C151.455 49.5145 151.881 49.9595 151.881 50.571C151.881 51.1892 151.455 51.6275 150.864 51.6275H149.641ZM158.97 52.0793H159.444V47.2758H159.037L156.391 51.1892V47.2758H155.918V52.0793H156.324L158.97 48.1659V52.0793ZM170.126 49.6776C170.126 48.5124 169.169 47.8805 167.839 47.816V47.2758H167.365V47.8194C166.036 47.8805 165.079 48.5124 165.079 49.6809C165.079 50.8461 166.036 51.478 167.365 51.5425V52.0861H167.839V51.5425C169.172 51.4746 170.126 50.8427 170.126 49.6776ZM165.555 49.6776C165.555 48.7637 166.301 48.3119 167.365 48.2576V51.0975C166.301 51.0432 165.555 50.5914 165.555 49.6776ZM167.842 51.0975V48.2576C168.907 48.3119 169.652 48.7637 169.652 49.6776C169.652 50.5914 168.907 51.0432 167.842 51.0975ZM174.552 52.1608C175.935 52.1608 177.007 51.05 177.007 49.6776C177.007 48.3051 175.935 47.1943 174.552 47.1943C173.168 47.1943 172.097 48.3051 172.097 49.6776C172.097 51.05 173.168 52.1608 174.552 52.1608ZM174.552 51.6954C173.427 51.6954 172.571 50.7952 172.571 49.6776C172.571 48.5599 173.427 47.6597 174.552 47.6597C175.677 47.6597 176.533 48.5599 176.533 49.6776C176.533 50.7952 175.68 51.6954 174.552 51.6954ZM181.013 47.2758H179.317V52.0793H179.79V50.2958H181.013C181.869 50.2958 182.504 49.6436 182.504 48.7875C182.507 47.9213 181.869 47.2758 181.013 47.2758ZM181.013 49.8406H179.79V47.7276H181.013C181.604 47.7276 182.03 48.1659 182.03 48.7841C182.03 49.3956 181.604 49.8406 181.013 49.8406ZM187.38 47.2758L186.131 50.2279L184.761 47.2758H184.274L185.909 50.7612L185.815 50.9888C185.597 51.5052 185.284 51.6954 184.777 51.6411V52.0793C185.503 52.1268 185.973 51.7905 186.292 51.0296L187.874 47.2758H187.38ZM194.314 47.2758H193.723L192.142 49.9527L190.56 47.2758H189.969V52.0793H190.442V48.0028L192.105 50.8156H192.172L193.834 48.0028V52.0793H194.308V47.2758H194.314Z" fill="black"/>
<path fill-rule="evenodd" clip-rule="evenodd" d="M158.516 45.7607C158.516 45.7607 157.905 46.7765 157.438 46.7901C156.972 46.8036 156.857 46.1956 157.338 45.9985C157.818 45.7981 158.144 45.9204 158.516 45.7607Z" fill="black"/>
<path fill-rule="evenodd" clip-rule="evenodd" d="M76.2491 45.7607C76.2491 45.7607 75.5271 46.9667 74.973 46.9803C74.4189 46.9939 74.2813 46.2771 74.8521 46.0393C75.423 45.8015 75.8058 45.951 76.2491 45.7607Z" fill="black"/>
<path fill-rule="evenodd" clip-rule="evenodd" d="M51.7717 45.7607C51.7717 45.7607 51.0497 46.9667 50.4956 46.9803C49.9416 46.9939 49.8039 46.2771 50.3747 46.0393C50.9456 45.8049 51.3285 45.951 51.7717 45.7607Z" fill="black"/>
</svg>
