<svg width="91" height="68" viewBox="0 0 91 68" fill="none" xmlns="http://www.w3.org/2000/svg">
<path d="M44.1328 38.4244C44.1029 38.3348 44.0676 38.2316 44.0106 38.0687C41.5261 39.0543 39.7339 40.6428 38.9818 43.2604C38.2866 43.2713 37.3987 42.5164 37.358 41.824C37.3444 41.5851 37.415 41.3135 37.5263 41.0963C37.8793 40.3984 38.4441 39.8798 39.0659 39.4209C40.3856 38.4488 41.8601 37.8026 43.4295 37.3572C43.5137 37.3328 43.5952 37.3029 43.7065 37.2676C43.3535 36.3091 42.8973 35.4429 42.1072 34.7912C41.7161 34.4681 41.2681 34.2563 40.744 34.259C39.7937 34.2617 39.1691 35.079 39.3782 36.043C39.4054 36.1679 39.4542 36.2874 39.4895 36.4096C39.5954 36.7816 39.4895 36.9255 39.1012 36.9608C38.569 37.0097 38.0341 37.045 37.5073 37.1291C36.6628 37.2649 35.3921 37.6994 34.8789 38.1447C35.1531 38.4054 35.4246 38.6633 35.6989 38.9213C35.8102 39.0272 35.9297 39.1249 36.0356 39.2336C36.2555 39.4616 36.28 39.7142 36.1116 39.9151C35.9351 40.1269 35.6256 40.1731 35.3866 39.9993C35.2318 39.888 35.1015 39.7468 34.9603 39.6164C34.8951 39.5567 34.8218 39.5024 34.7648 39.4345C34.4281 39.0326 34.0914 38.8398 33.5022 39.0353C32.8641 39.2471 32.264 38.9566 31.8485 38.4189C31.4331 37.8786 31.4303 37.2894 31.7806 36.6702C30.2763 35.242 28.7693 33.811 27.246 32.3664C26.7844 32.5755 26.3227 32.7085 25.967 32.1899C24.8782 32.5782 23.8083 31.9835 23.6481 30.968H24.4872C24.3704 30.6068 24.2373 30.2919 24.1695 29.9606C24.0174 29.2247 24.4573 28.755 25.204 28.8636C25.5407 28.9125 25.8666 29.0319 26.244 29.1324C26.2277 28.8554 26.2087 28.573 26.1897 28.2906C27.1075 28.3151 27.9574 29.3741 27.5637 30.4738C27.9275 30.71 28.1067 31.0304 27.933 31.4676C27.8569 31.6577 28.0117 31.7174 28.104 31.8043C29.1521 32.7927 30.2084 33.7784 31.2593 34.7668C31.6394 35.1252 32.0196 35.4836 32.397 35.8502C32.5111 35.9615 32.6088 36.0267 32.7934 35.9833C33.3718 35.8448 33.9013 35.9615 34.3738 36.3417C34.4661 36.415 34.6046 36.4585 34.7241 36.4612C35.726 36.4775 36.7036 36.3281 37.6431 35.967C37.7571 35.9235 37.8549 35.8366 37.9825 35.7552C37.8277 35.5054 37.6865 35.2854 37.5508 35.0573C37.1625 34.4084 36.8611 33.7295 36.7307 32.9746C36.3587 30.7888 38.1454 29.632 39.7692 29.7868C39.7801 29.8764 39.7964 29.9714 39.7991 30.0692C39.7991 30.7833 39.7937 31.5002 39.7991 32.2143C39.8072 33.1186 40.3883 33.7214 41.2953 33.7621C41.7677 33.7838 42.2402 33.792 42.7127 33.7675C43.6305 33.7187 44.3446 34.0879 44.9176 34.7749C44.9664 34.8347 45.018 34.8917 45.0235 34.8998C45.2108 34.7505 45.4063 34.6093 45.5828 34.4491C46.0526 34.0173 46.5929 33.7702 47.2392 33.773C47.7633 33.773 48.2873 33.7594 48.8087 33.773C49.6178 33.7947 50.4542 33.143 50.3999 32.1465C50.3591 31.3726 50.3917 30.5933 50.3917 29.8248C51.7141 29.5343 53.1913 30.5281 53.4492 31.8315C53.6121 32.6461 53.4356 33.4091 53.1098 34.1395C52.8681 34.6826 52.5477 35.1958 52.2572 35.7335C52.5694 36.157 54.4322 36.5861 55.35 36.415C55.5618 35.7742 55.9311 35.2447 56.5583 34.8808C57.0471 35.2637 57.5386 35.6466 58.0463 36.0457C58.546 35.6574 59.0347 35.2746 59.5181 34.8971C60.74 35.4891 61.3482 37.2839 60.2729 38.6036C59.1189 40.021 56.9493 39.9857 55.7872 38.5792C55.5373 38.275 55.1843 38.0252 54.8313 37.8433C53.7751 37.3002 52.6346 37.045 51.4507 36.9744C51.3231 36.9662 51.1955 36.9744 51.0679 36.9635C50.7013 36.9364 50.6008 36.7843 50.6931 36.4313C50.7447 36.2358 50.818 36.0376 50.8316 35.8393C50.9131 34.7179 50.0143 34.0119 48.9336 34.3378C48.4964 34.4708 48.1298 34.7206 47.8094 35.041C47.1849 35.6656 46.7912 36.4286 46.4843 37.2703C46.5821 37.3029 46.6635 37.3355 46.745 37.36C48.5507 37.8813 50.2397 38.6307 51.6734 39.8798C52.0997 40.2518 52.4608 40.6781 52.7134 41.1886C52.9197 41.6041 52.8899 42.0005 52.6292 42.3807C52.2925 42.8776 51.8336 43.1871 51.2199 43.3147C50.4786 40.6727 48.681 39.0706 46.1829 38.0741C46.1259 38.2289 46.0879 38.3293 46.0526 38.4244C46.4572 38.6878 46.8563 38.9159 47.2202 39.1874C48.4041 40.0753 49.2621 41.1995 49.7183 42.625C49.9301 43.2876 49.74 43.7954 49.2649 44.2407C48.9444 44.5421 48.5643 44.743 48.0864 44.8815C47.8773 42.7771 47.2799 40.8465 45.8788 39.2498C45.8381 39.2607 45.7946 39.2689 45.7539 39.2797C45.7838 39.535 45.7756 39.8011 45.8489 40.0427C46.2508 41.3733 46.5875 42.7146 46.745 44.0995C46.84 44.9141 46.5658 45.4979 45.9059 45.9242C44.9773 46.5216 45.1565 46.5053 44.2767 45.9324C43.6033 45.4952 43.3345 44.8978 43.4322 44.0723C43.5952 42.7255 43.9047 41.4194 44.3066 40.1269C44.3908 39.8581 44.3935 39.5675 44.369 39.2689C42.9028 40.8383 42.2999 42.7527 42.099 44.8272C41.3523 44.7675 40.5105 44.0425 40.3802 43.3446C40.353 43.2007 40.3639 43.0378 40.3992 42.8939C40.7739 41.3352 41.6944 40.1432 42.9462 39.1901C43.3101 38.9131 43.7119 38.6905 44.1192 38.4244H44.1328ZM25.4348 26.3274C25.8856 26.6153 26.3879 26.7402 26.9174 26.7836C28.1855 26.8841 29.3368 26.4849 30.4392 25.9337C31.1995 25.5535 31.9245 25.1001 32.6767 24.6738C32.788 24.7797 32.9292 24.9182 33.0921 25.0729C31.748 26.9384 29.8283 27.7503 27.6533 28.1793C27.99 28.8038 28.495 29.1487 29.1413 29.3089C29.7984 29.4691 30.4338 29.3605 31.0529 29.127C32.0386 28.7522 32.7717 28.0435 33.4343 27.2588C33.7846 26.8433 34.0941 26.3926 34.42 25.9581C34.6073 26.0396 34.7784 26.1156 34.9766 26.2025C34.477 28.22 33.1084 29.5207 31.4548 30.5878C31.7453 30.9734 32.1662 31.1934 32.6767 31.2341C33.8687 31.3291 34.7757 30.8322 35.3513 29.8167C35.6799 29.2356 35.9053 28.5893 36.1225 27.9539C36.2908 27.4679 36.3723 26.952 36.4999 26.4279C37.9255 26.5229 39.0822 27.0171 39.7013 28.4155C39.7231 28.3965 39.7448 28.3775 39.7665 28.3585V23.9651C39.7122 23.9542 39.685 23.9406 39.6633 23.9433C39.5873 23.9569 39.514 23.9732 39.4407 23.9922C38.7075 24.1904 37.9608 24.2719 37.2059 24.1741C36.0302 24.0194 35.1314 23.4464 34.6969 22.3168C34.2869 21.2497 34.5476 20.2885 35.3269 19.463C35.5876 19.186 35.5794 19.11 35.2644 18.9063C33.8796 18.0238 32.655 16.9458 31.5172 15.7674C29.2553 13.4267 27.322 10.8308 25.5814 8.08833C25.5027 7.96614 25.4185 7.84666 25.3208 7.70546C24.5822 8.36801 24.202 9.15547 24.1124 10.076C23.9604 11.6183 24.4899 12.9325 25.5136 14.0648C26.1843 14.8089 26.9663 15.428 27.7972 15.9792C28.6688 16.5575 29.5595 17.1033 30.4501 17.6491C30.6402 17.7659 30.7325 17.8799 30.6728 18.1053C30.6375 18.2329 30.6347 18.3687 30.613 18.518C27.3926 17.7632 24.7614 16.1068 22.5131 13.7227C22.4371 13.8911 22.3827 14.0024 22.3366 14.1192C21.7066 15.7945 22.4615 17.7849 24.0961 18.6728C24.6066 18.9498 25.1606 19.167 25.7145 19.3462C27.1862 19.8241 28.7123 20.0495 30.2383 20.2613C30.7325 20.3292 30.7325 20.3238 30.8167 20.8044C30.8221 20.8397 30.8085 20.875 30.8004 20.9374C27.9248 21.2823 25.1714 20.8533 22.5375 19.6313C22.3121 21.0949 22.9991 22.3521 24.3161 22.9468C25.128 23.3134 25.9888 23.3677 26.8631 23.3079C28.2887 23.2075 29.6979 22.9848 31.0909 22.6671C31.2919 22.621 31.4385 22.6427 31.5091 22.8626C31.539 22.9549 31.5851 23.0446 31.6313 23.1559C31.4819 23.2373 31.3543 23.3242 31.2158 23.3785C30.6592 23.5958 30.1107 23.8429 29.5377 24.0031C27.9058 24.4647 26.2304 24.5706 24.517 24.5136C24.4573 25.2657 24.8021 25.931 25.4294 26.3329L25.4348 26.3274ZM60.0258 17.4916C61.3374 16.7232 62.6163 15.9086 63.7812 14.9256C64.6718 14.1762 65.4376 13.3263 65.8177 12.2021C66.3119 10.7385 66.2467 9.34011 65.2502 8.08018C65.1443 7.94713 65.0085 7.83851 64.8728 7.70818C64.7994 7.80865 64.7506 7.86838 64.7098 7.93084C63.1458 10.4208 61.4134 12.7859 59.4312 14.9609C58.1034 16.4191 56.6805 17.7686 55.0187 18.8466C54.5924 19.1236 54.5897 19.1534 54.9264 19.5227C55.5428 20.1961 55.8143 20.9863 55.6215 21.8851C55.3663 23.0771 54.5788 23.7886 53.4275 24.0873C52.5423 24.3181 51.6544 24.2149 50.7773 23.9976C50.6714 23.9705 50.5628 23.9488 50.4352 23.9216V28.3612C51.1303 27.0008 52.2871 26.5039 53.7153 26.4252C53.7615 26.6533 53.7941 26.8271 53.8294 27.0008C54.0439 28.0137 54.3127 29.0102 54.8802 29.8927C55.5075 30.8675 56.4008 31.3427 57.5684 31.2205C58.0328 31.1716 58.4401 30.9897 58.7578 30.5933C57.077 29.5071 55.7057 28.2119 55.2196 26.1889C55.4342 26.1021 55.6161 26.026 55.8089 25.9473C56.3112 26.7537 56.8814 27.4706 57.5603 28.0951C58.1495 28.6382 58.8039 29.0672 59.5941 29.2627C60.4684 29.48 61.2912 29.4094 62.0189 28.8283C62.2307 28.6572 62.4371 28.4671 62.5267 28.1494C61.4324 27.9947 60.425 27.6444 59.4773 27.1366C58.5242 26.6261 57.6988 25.969 57.1095 25.0322C57.2752 24.8747 57.4109 24.7471 57.5005 24.6629C58.307 25.1164 59.0565 25.5834 59.8412 25.9717C60.9246 26.5066 62.0596 26.8841 63.2979 26.7782C64.0147 26.7157 64.68 26.5175 65.1823 25.969C65.557 25.5617 65.7227 25.0756 65.6928 24.5136C63.1838 24.5652 60.7807 24.3506 58.5433 23.1505C58.6383 22.9549 58.7143 22.7975 58.7931 22.6345C58.9044 22.6427 58.994 22.6372 59.0782 22.6563C60.4603 22.9658 61.856 23.1912 63.268 23.2944C64.1695 23.3595 65.052 23.3052 65.891 22.9305C67.1944 22.3467 67.9357 20.9619 67.637 19.6313C65.0031 20.8478 62.2524 21.2741 59.3579 20.9266C59.3823 20.7854 59.4149 20.674 59.4149 20.5627C59.4149 20.3428 59.5479 20.2939 59.7353 20.2695C60.4549 20.1717 61.1772 20.0848 61.8913 19.9545C63.2327 19.7128 64.5605 19.4168 65.8069 18.8276C66.9419 18.29 67.656 17.4102 67.9656 16.2046C68.1801 15.3628 68.1122 14.5427 67.675 13.72C65.4321 16.1014 62.7955 17.7577 59.6022 18.5045C59.4583 17.8148 59.4583 17.8175 60.0231 17.4889L60.0258 17.4916ZM35.8944 13.8476C36.4646 13.7689 37.0349 13.7933 37.5996 13.9589C39.8561 14.6215 41.6971 17.231 41.5994 19.6368C41.5614 20.5844 41.2382 21.399 40.5377 22.0534C40.4861 22.0996 40.4535 22.1648 40.4019 22.2327C40.9585 22.3358 49.6016 22.2978 49.8487 22.1946C49.7943 22.1349 49.7482 22.0779 49.6939 22.0263C48.8684 21.2361 48.5751 20.2477 48.662 19.1399C48.7652 17.8256 49.2947 16.6825 50.1365 15.6805C50.9049 14.7681 51.8336 14.0784 53.0311 13.8802C53.9461 13.7281 54.8911 13.6494 55.4695 14.6486C56.3058 13.6168 55.9637 12.3514 54.7472 11.9197C54.1281 11.6998 53.4791 11.6346 52.8301 11.6183C51.9503 11.5966 51.0679 11.6156 50.1881 11.5939C49.0286 11.5667 47.8664 11.5694 46.7368 11.2327C46.6934 11.2191 46.6445 11.2381 46.5631 11.2436C46.7776 12.3433 47.5379 12.9814 48.3742 13.5462C46.3431 15.5501 45.4986 18.0564 45.1348 20.8668C44.7601 18.0564 43.9183 15.5366 41.8791 13.5353C42.0013 13.4566 42.099 13.3996 42.194 13.3371C42.7154 12.976 43.1526 12.5334 43.4594 11.9767C43.5843 11.7486 43.7119 11.5097 43.6549 11.2762C42.9 11.3685 42.1723 11.507 41.4392 11.5396C40.1277 11.5993 38.8107 11.5884 37.4965 11.6237C36.7552 11.6427 36.0166 11.6998 35.3269 12.0066C34.2679 12.4791 34.0099 13.7743 34.8055 14.6595C35.0309 14.2006 35.4056 13.9264 35.8998 13.8585L35.8944 13.8476ZM47.5623 8.30827C47.3559 7.88468 47.3044 7.51267 47.6139 7.08093C48.0321 6.49169 48.3769 5.84815 48.5073 5.11229C48.681 4.12118 48.1651 3.43148 47.1686 3.33101C46.8998 3.30386 46.707 3.35545 46.5495 3.58897C46.43 3.76818 46.2725 3.92296 46.1313 4.0886C45.7946 4.48232 45.4552 4.87605 45.1022 5.28607C45.018 5.19375 44.9556 5.13401 44.8985 5.06613C44.4587 4.55292 44.0242 4.03429 43.5789 3.5238C43.5028 3.43691 43.3807 3.33373 43.2802 3.33101C42.2864 3.31472 41.4473 3.90124 41.6971 5.08514C41.7922 5.5386 41.9877 5.97577 42.1832 6.40209C42.3407 6.74694 42.5579 7.06735 42.7616 7.39319C42.8512 7.53439 42.8647 7.6593 42.8159 7.82222C42.6366 8.44676 42.2918 8.95181 41.7732 9.3374C41.3251 9.67139 40.8309 9.89404 40.2037 9.97822C40.4942 9.50846 40.6843 9.08215 40.6762 8.59067C40.668 8.05846 40.4155 7.74076 39.905 7.59142C39.6769 7.52625 39.4923 7.54797 39.313 7.72447C39.0225 8.00958 38.7129 8.27569 38.3898 8.56895C38.0776 8.28926 37.7653 8.02859 37.4775 7.74076C37.2901 7.55069 37.1 7.52353 36.8556 7.59685C36.3044 7.76248 36.0302 8.18065 36.0926 8.75631C36.1578 9.36726 36.4782 9.85603 36.8258 10.3312C36.8746 10.3991 36.9941 10.4534 37.081 10.4534C38.2921 10.4371 39.5113 10.4833 40.7115 10.3665C41.9632 10.2443 42.9218 9.56006 43.5083 8.41689C43.6413 8.15893 43.7391 7.88196 43.8558 7.60771H46.3621C46.3866 7.68102 46.4001 7.7299 46.4164 7.77606C46.9595 9.34283 48.0538 10.2443 49.7047 10.3937C50.5927 10.4751 51.4887 10.4453 52.3821 10.4561C52.6862 10.4588 53.0826 10.5512 53.27 10.3964C53.5687 10.152 53.7561 9.75013 53.9353 9.38899C54.1063 9.04414 54.1688 8.66127 54.0656 8.27297C53.8945 7.62672 53.1342 7.37962 52.6455 7.81408C52.3712 8.05846 52.0997 8.30827 51.8146 8.56895C51.4833 8.27026 51.1765 7.98514 50.8588 7.71089C50.7773 7.64029 50.6714 7.56698 50.5682 7.55883C50.0605 7.50996 49.5717 7.91726 49.5391 8.42775C49.5228 8.66399 49.5472 8.9138 49.6097 9.14189C49.6857 9.41886 49.8242 9.67682 49.9355 9.94292C48.9879 9.87504 47.9886 9.18262 47.5623 8.30556V8.30827ZM47.1007 32.809C47.4564 32.5266 47.7687 32.3067 48.0511 32.0541C48.3118 31.8206 48.4883 31.5192 48.5453 31.1689C48.6295 30.6639 48.4068 30.4602 47.918 30.6096C47.6845 30.6802 47.47 30.8078 47.2148 30.9245C47.0844 30.2023 46.9595 29.5044 46.8346 28.8038C46.8047 28.6382 46.8862 28.535 47.0355 28.478C47.6519 28.2418 48.3932 28.4997 48.3959 29.1677C48.3959 29.2139 48.4258 29.2573 48.4557 29.3442C48.529 29.2817 48.6104 29.2464 48.6213 29.1976C48.7544 28.5133 48.4774 27.8833 47.6899 27.8345C47.5297 27.8236 47.3668 27.8345 47.2012 27.8345C47.098 27.4027 46.9894 27.009 46.9133 26.6098C46.8835 26.4551 46.9079 26.2813 46.9514 26.1292C46.9704 26.0613 47.098 26.0233 47.2446 25.9256C47.2446 26.2568 47.2338 26.4822 47.2473 26.7103C47.2636 26.952 47.4374 27.0361 47.6003 26.8596C47.7687 26.6777 47.9262 26.4605 48.0131 26.2297C48.3281 25.3933 47.7931 24.7335 46.9215 24.8991C46.5359 24.9725 46.1748 25.1598 45.7865 25.2983C45.667 25.1218 45.5095 24.8937 45.3466 24.6521C45.4335 24.5489 45.5285 24.4701 45.5692 24.3724C45.6317 24.2176 45.7132 24.0329 45.6779 23.8863C45.6561 23.7886 45.447 23.6854 45.3167 23.6745C45.1049 23.6609 44.9121 23.7696 44.8524 23.9976C44.8144 24.147 44.8198 24.3072 44.8062 24.4674C44.5863 24.481 44.3609 24.4918 44.0785 24.5081C45.0968 27.3022 46.0879 30.0203 47.1034 32.809H47.1007ZM56.4606 9.47045C57.0091 8.82962 57.0851 8.07747 56.9059 7.2873C57.3105 7.1108 57.8997 7.1651 58.4319 7.4122C59.29 7.81136 59.4936 8.65855 58.9044 9.39713C58.698 9.65509 58.4509 9.88318 58.2446 10.1411C58.0952 10.3285 57.9513 10.5322 57.8671 10.7548C57.6662 11.2762 57.9079 11.7432 58.4591 11.9387C58.4509 11.8545 58.4428 11.7839 58.4374 11.7106C58.3939 11.0481 58.6736 10.8336 59.2927 11.0725C59.5398 11.1676 59.7733 11.3006 60.0123 11.4146C60.015 11.4065 60.0258 11.3929 60.0258 11.3848C60.0068 11.2979 59.9905 11.2137 59.9661 11.1295C59.7597 10.3692 59.8738 9.69311 60.4766 9.13646C60.5879 9.03327 60.6884 8.9138 60.7726 8.78618C61.0984 8.31099 60.9599 7.88468 60.4114 7.71361C60.1589 7.63486 59.8901 7.58055 59.6267 7.55612C58.9641 7.49909 58.3966 7.27372 57.9594 6.74694C57.7314 6.47269 57.4707 6.22559 57.21 5.98392C57.0634 5.84544 56.895 5.72053 56.7212 5.62278C56.4253 5.45986 56.1483 5.51688 55.9338 5.77212C55.8279 5.89703 55.7519 6.04637 55.6704 6.19029C55.5238 6.45096 55.5102 6.65462 55.7464 6.92615C56.743 8.07747 56.227 9.69854 54.777 10.0488C54.606 10.0896 54.4268 10.1031 54.234 10.1303V10.4425C55.111 10.3828 55.8849 10.1466 56.4579 9.47316L56.4606 9.47045ZM35.7369 10.0923C34.9522 10.0081 34.3602 9.6388 34.0642 8.88936C33.7656 8.13177 33.9719 7.45022 34.4906 6.87456C34.6888 6.65733 34.6698 6.49712 34.5666 6.26903C34.181 5.40283 33.7221 5.29693 33.027 5.94047C32.6903 6.25274 32.378 6.58945 32.0576 6.91801C31.7562 7.23027 31.4032 7.42849 30.9633 7.48552C30.5614 7.53711 30.1541 7.60499 29.7658 7.71632C29.2553 7.86295 29.1114 8.28926 29.4047 8.73458C29.5296 8.92466 29.6898 9.09301 29.8473 9.26136C30.1948 9.63609 30.3795 10.0705 30.3198 10.5837C30.2872 10.858 30.2301 11.1295 30.1786 11.4337C30.26 11.3875 30.3198 11.3495 30.3822 11.3196C30.613 11.2137 30.8384 11.0779 31.0801 11.0155C31.5525 10.8906 31.7833 11.0942 31.7698 11.5884C31.767 11.7052 31.7589 11.8247 31.7508 11.9604C32.3617 11.6699 32.5599 11.1757 32.2884 10.6299C32.1825 10.4181 32.0196 10.2308 31.8675 10.0434C31.6367 9.75556 31.3679 9.49489 31.1615 9.19077C30.871 8.76445 30.9008 8.2431 31.1887 7.86838C31.5851 7.34975 32.6115 7.03748 33.2388 7.24657C33.2605 7.25471 33.2741 7.28186 33.2904 7.30087C32.9645 8.78889 33.6895 9.65781 34.5014 10.076C34.9549 10.3095 35.4409 10.4317 35.9731 10.4317V10.1411C35.8862 10.1249 35.8129 10.1058 35.7369 10.0977V10.0923ZM46.2209 1.55788C45.8353 1.09083 45.4823 0.661807 45.0995 0.200195C44.7112 0.675384 44.35 1.11256 43.9808 1.56602C44.3609 2.05207 44.7193 2.50826 45.1022 2.99974C45.4932 2.49739 45.8544 2.03035 46.2182 1.55788H46.2209ZM58.0572 34.6772C58.4075 34.3459 58.7279 34.0445 59.0592 33.7322C58.717 33.3684 58.3966 33.0262 58.0599 32.6678C57.7151 33.0317 57.3919 33.3711 57.0471 33.7349C57.3865 34.0499 57.7178 34.3595 58.0599 34.6772H58.0572ZM38.3925 6.64375C38.6668 6.31248 38.9247 6.00293 39.1854 5.68795C38.9139 5.35667 38.6641 5.05255 38.3952 4.72128C38.1264 5.04712 37.8685 5.35667 37.5942 5.69066C37.8603 6.00564 38.1183 6.3152 38.3952 6.64375H38.3925ZM52.6075 5.68523C52.3332 5.35124 52.0807 5.0444 51.8119 4.72128C51.5267 5.06884 51.2797 5.37296 51.019 5.69066C51.2769 6.00021 51.5268 6.30162 51.8146 6.64647C52.097 6.30705 52.3495 5.9975 52.6075 5.68795V5.68523ZM53.0012 14.5074C52.9252 14.4396 52.784 14.369 52.7052 14.3934C52.2002 14.559 51.7277 14.7898 51.2797 15.246C52.1431 15.1075 52.8899 15.1673 53.5986 15.7022C53.5334 15.1727 53.3325 14.8007 53.0012 14.5047V14.5074ZM37.5643 14.4015C37.4937 14.3771 37.377 14.3907 37.32 14.4368C36.9425 14.741 36.6954 15.1211 36.6547 15.6859C37.3498 15.1727 38.0803 15.1103 38.8541 15.1972C38.5011 14.7871 38.0423 14.5753 37.5643 14.4015ZM46.783 32.9529C46.3377 33.2 45.8516 33.2462 45.3737 33.2706C44.5456 33.3168 43.7445 33.1946 43.0548 32.6732C42.9842 32.6189 42.8729 32.6108 42.7778 32.6026C42.6502 32.5918 42.5199 32.6189 42.395 32.5945C42.042 32.5266 41.727 32.3908 41.6184 32.0053C41.5125 31.6305 41.5912 31.2938 41.8763 30.9626C41.9822 31.2042 41.746 31.5952 42.2266 31.5762C42.2538 31.3128 42.2456 31.0413 42.319 30.7942C42.4683 30.2973 42.6448 29.8058 42.8484 29.3279C42.9435 29.1052 42.9924 28.9043 42.9299 28.6681C42.8756 28.4644 42.8566 28.2526 42.824 28.0544C42.6638 28.3721 42.5117 28.6952 42.3352 29.0048C42.3027 29.0618 42.1805 29.0672 42.0067 29.127C42.2293 28.6816 42.0501 28.3694 41.8519 28.0517C41.7107 27.8263 41.651 27.5738 41.8302 27.3348C42.0175 27.085 42.2836 27.0633 42.5552 27.1529C42.7697 27.2235 42.9734 27.3321 43.1852 27.4244C43.4431 27.3403 43.7174 27.2507 44.0161 27.1529C43.9889 27.0416 43.9617 26.9221 43.94 26.8325C43.5789 26.7374 43.234 26.6587 42.8946 26.5555C42.7507 26.5121 42.6122 26.4333 42.4873 26.3492C41.8763 25.9337 41.8763 25.4286 42.5063 25.0295C42.7833 24.8557 43.0955 24.7362 43.416 24.5814C43.2503 24.1144 43.0793 23.6392 42.9082 23.164C42.8837 23.0934 42.8322 23.0201 42.8349 22.9495C42.8349 22.8626 42.881 22.7784 42.9055 22.6916C42.9761 22.7486 43.0521 22.8002 43.1173 22.8626C43.1417 22.8871 43.1499 22.9305 43.1634 22.9658C44.3555 26.2433 45.5475 29.5207 46.7396 32.7954C46.7559 32.8416 46.7667 32.8905 46.783 32.9502V32.9529ZM44.0188 30.9001C43.9509 30.4303 43.883 29.9769 43.8124 29.4854C43.3481 29.9959 42.8322 30.4602 42.6719 31.1825C43.1661 31.0793 43.6278 30.9816 44.0188 30.8974V30.9001ZM4.65685 56.9757H3.6413L3.234 55.7484H1.3794L0.996539 56.9757H0L1.80572 51.5613H2.79683L4.65685 56.9757ZM2.93259 54.8333L2.29177 52.824L1.66452 54.8333H2.93259ZM8.29544 56.115H8.65115V58.013H7.93429V56.9757H5.38728V58.013H4.67043V56.115H5.02614C5.37642 55.6452 5.56107 54.6242 5.57736 53.052H8.29815V56.115H8.29544ZM5.89234 56.115H7.4048V53.9182H6.33494C6.30508 54.9528 6.15573 55.6832 5.89234 56.115ZM9.28383 56.9757V53.052H10.3917L11.2253 55.7837L12.0725 53.052H13.1722V56.9757H12.4038V54.3961L11.5892 56.9757H10.8289L10.055 54.3961V56.9757H9.28655H9.28383ZM14.0357 56.9757V53.052H14.8883V55.5149L16.2542 53.052H17.1339V56.9757H16.2759V54.4613L14.8856 56.9757H14.033H14.0357ZM18.0029 56.9757V53.052H18.8935V54.4803H20.167V53.052H21.0576V56.9757H20.167V55.3248H18.8935V56.9757H18.0029ZM21.932 56.9757V53.052H22.7846V55.5149L24.1504 53.052H25.0302V56.9757H24.1722V54.4613L22.7819 56.9757H21.9293H21.932ZM28.8698 54.2088L27.9927 54.3934C27.9275 53.9834 27.7239 53.777 27.3844 53.777C27.1645 53.777 26.988 53.8666 26.8522 54.0431C26.7165 54.2196 26.6513 54.5211 26.6513 54.9447C26.6513 55.4117 26.7192 55.7403 26.8522 55.933C26.9853 56.1258 27.1645 56.2209 27.3899 56.2209C27.5582 56.2209 27.6967 56.1666 27.8053 56.058C27.9139 55.9493 27.99 55.7538 28.0361 55.4769L28.9132 55.6506C28.734 56.5956 28.2153 57.0681 27.3573 57.0681C26.8088 57.0681 26.4042 56.8671 26.1381 56.468C25.872 56.0688 25.7417 55.5882 25.7417 55.0261C25.7417 54.3527 25.891 53.8395 26.1924 53.4892C26.4911 53.1389 26.8848 52.9624 27.3736 52.9624C27.7673 52.9624 28.0877 53.0629 28.3375 53.2611C28.5874 53.4593 28.7639 53.777 28.8725 54.2115L28.8698 54.2088ZM29.144 53.8694V53.052H32.1879V53.8694H31.1126V56.9757H30.222V53.8694H29.1467H29.144ZM32.6903 53.052H33.5157V53.6277C33.6298 53.4213 33.7791 53.2584 33.9638 53.1389C34.1484 53.0195 34.3494 52.9597 34.5639 52.9597C34.9467 52.9597 35.278 53.1362 35.555 53.4865C35.8319 53.8368 35.9704 54.3337 35.9704 54.9772C35.9704 55.6534 35.8319 56.1693 35.555 56.5304C35.278 56.8889 34.9467 57.0681 34.5639 57.0681C34.3874 57.0681 34.2217 57.0273 34.067 56.9432C33.9149 56.8617 33.752 56.7124 33.5836 56.4951V58.4665H32.693V53.052H32.6903ZM33.57 54.9474C33.57 55.3927 33.6461 55.7185 33.7954 55.9303C33.9448 56.1394 34.1267 56.2453 34.3412 56.2453C34.5557 56.2453 34.7159 56.1476 34.8544 55.9548C34.9929 55.762 35.0635 55.4443 35.0635 55.0044C35.0635 54.5645 34.9929 54.2794 34.849 54.0812C34.7078 53.8829 34.5313 53.7825 34.3276 53.7825C34.1131 53.7825 33.9312 53.8802 33.7873 54.073C33.6434 54.2658 33.5728 54.5591 33.5728 54.9501L33.57 54.9474ZM37.3417 54.2468L36.5352 54.0757C36.633 53.6793 36.7959 53.3942 37.0186 53.2204C37.2439 53.0466 37.5671 52.9597 37.9879 52.9597C38.3627 52.9597 38.6505 53.0113 38.8487 53.1118C39.0469 53.2122 39.1881 53.3507 39.2723 53.5245C39.3565 53.6983 39.3999 54.0133 39.3999 54.4722L39.3918 55.6859C39.3918 56.0254 39.4054 56.2806 39.4352 56.4462C39.4624 56.6119 39.5167 56.7884 39.5927 56.9757H38.7129L38.5962 56.5467C38.4441 56.7178 38.2812 56.8481 38.1074 56.9377C37.9336 57.0246 37.749 57.0681 37.5535 57.0681C37.2276 57.0681 36.9588 56.9622 36.7497 56.7531C36.5407 56.544 36.4375 56.2616 36.4375 55.9113C36.4375 55.6887 36.4809 55.4959 36.5651 55.3302C36.6493 55.1646 36.7687 55.0343 36.9235 54.9338C37.0783 54.8333 37.3254 54.7464 37.6648 54.6704C38.0776 54.5781 38.3627 54.4939 38.5256 54.4152C38.5256 54.1979 38.5093 54.054 38.4767 53.9861C38.4441 53.9182 38.3844 53.8612 38.3002 53.8178C38.2133 53.7743 38.0911 53.7526 37.9364 53.7526C37.7816 53.7526 37.6512 53.7879 37.5616 53.8558C37.4693 53.9237 37.396 54.054 37.339 54.2441L37.3417 54.2468ZM38.531 55.0913C38.417 55.1347 38.2405 55.1863 38.0015 55.2461C37.7273 55.3139 37.5453 55.3927 37.4612 55.4769C37.377 55.561 37.3335 55.6697 37.3335 55.8027C37.3335 55.9521 37.3797 56.0797 37.4747 56.1829C37.5698 56.286 37.6865 56.3376 37.8277 56.3376C37.9526 56.3376 38.0776 56.2969 38.2025 56.2127C38.3274 56.1285 38.4115 56.0308 38.4604 55.9195C38.5066 55.8054 38.531 55.5991 38.531 55.3004V55.094V55.0913ZM43.3019 56.134H43.6495V58.013H42.9326V56.9757H40.2553V53.052H41.1459V56.1367H42.4113V53.052H43.3019V56.134ZM44.2441 56.973V53.0493H45.0968V55.5122L46.4626 53.0493H47.3424V56.973H46.4843V54.4586L45.0941 56.973H44.2414H44.2441ZM49.3056 53.0493H51.1303V56.973H50.2397V55.3357H50.0876C49.922 55.3357 49.7889 55.3764 49.6857 55.4579C49.5825 55.5393 49.4794 55.6778 49.3762 55.8706L48.7978 56.9703H47.7633L48.3959 55.8326C48.5751 55.5094 48.7381 55.3194 48.8901 55.2623C48.6295 55.2379 48.4258 55.1239 48.2765 54.9229C48.1298 54.722 48.0565 54.4667 48.0565 54.1572C48.0565 53.777 48.157 53.4974 48.3552 53.3181C48.5534 53.1362 48.8711 53.0466 49.3029 53.0466L49.3056 53.0493ZM50.2397 54.722V53.7064H49.5282C49.1562 53.7064 48.9716 53.8775 48.9716 54.2169C48.9716 54.5564 49.178 54.722 49.5907 54.722H50.2424H50.2397ZM54.777 56.9703H53.843V51.5559H57.5467V56.9703H56.6126V52.471H54.777V56.9703ZM58.4781 53.0466H59.3036V53.6223C59.4176 53.4159 59.5669 53.253 59.7516 53.1335C59.9362 53.014 60.1372 52.9543 60.3517 52.9543C60.7345 52.9543 61.0658 53.1308 61.3428 53.4811C61.6198 53.8314 61.7582 54.3283 61.7582 54.9718C61.7582 55.6479 61.6198 56.1638 61.3428 56.525C61.0658 56.8834 60.7345 57.0626 60.3517 57.0626C60.1752 57.0626 60.0095 57.0219 59.8548 56.9377C59.7027 56.8563 59.5398 56.7069 59.3714 56.4897V58.461H58.4808V53.0466H58.4781ZM59.3579 54.9419C59.3579 55.3873 59.4339 55.7131 59.5832 55.9249C59.7326 56.134 59.9145 56.2399 60.129 56.2399C60.3435 56.2399 60.5037 56.1421 60.6422 55.9493C60.7807 55.7565 60.8513 55.4388 60.8513 54.999C60.8513 54.5591 60.7807 54.274 60.6368 54.0757C60.4956 53.8775 60.3191 53.777 60.1154 53.777C59.9009 53.777 59.719 53.8748 59.5751 54.0676C59.4312 54.2604 59.3606 54.5536 59.3606 54.9447L59.3579 54.9419ZM64.4166 55.724L65.2991 55.8977C65.1796 56.2915 64.995 56.5847 64.7451 56.7748C64.4953 56.9649 64.1912 57.0599 63.8328 57.0599C63.3359 57.0599 62.9503 56.8997 62.6815 56.582C62.361 56.2127 62.2036 55.6941 62.2036 55.0288C62.2036 54.3636 62.3638 53.8476 62.6869 53.4512C62.9584 53.1172 63.3114 52.9516 63.7432 52.9516C64.2238 52.9516 64.6012 53.1226 64.8728 53.4621C65.1877 53.8531 65.3425 54.426 65.3425 55.1863V55.3058H63.1132C63.1186 55.6181 63.192 55.857 63.3332 56.0281C63.4744 56.1992 63.6427 56.2833 63.8409 56.2833C64.126 56.2833 64.3188 56.096 64.4139 55.7212L64.4166 55.724ZM64.4627 54.6704C64.4546 54.3636 64.3867 54.1328 64.2591 53.978C64.1315 53.8232 63.9767 53.7472 63.8002 53.7472C63.6128 53.7472 63.4553 53.8286 63.325 53.9888C63.1947 54.1518 63.1295 54.3799 63.1322 54.6704H64.4627ZM67.1401 55.3601H66.9745V54.684C67.3899 54.684 67.599 54.5129 67.599 54.1681C67.599 54.0269 67.5583 53.9101 67.4741 53.8123C67.3926 53.7173 67.2813 53.6684 67.1374 53.6684C66.8658 53.6684 66.6758 53.8368 66.5699 54.1735L65.8096 53.9861C65.9861 53.3019 66.4314 52.9597 67.1455 52.9597C67.5365 52.9597 67.8488 53.0656 68.0796 53.2747C68.3104 53.4838 68.4272 53.758 68.4272 54.0947C68.4272 54.464 68.229 54.76 67.8298 54.9772C68.324 55.1483 68.5711 55.4687 68.5711 55.9358C68.5711 56.2616 68.4435 56.5277 68.1882 56.7395C67.933 56.9513 67.5854 57.0572 67.1482 57.0572C66.3635 57.0572 65.8747 56.6879 65.6792 55.9521L66.4938 55.7864C66.6269 56.1693 66.8441 56.3594 67.1428 56.3594C67.2976 56.3594 67.4306 56.3105 67.5393 56.2127C67.6506 56.115 67.7049 55.9928 67.7049 55.8461C67.7049 55.6995 67.6533 55.58 67.5474 55.4904C67.4415 55.4008 67.3057 55.3547 67.1428 55.3547L67.1401 55.3601ZM69.2689 56.9676V53.0439H70.1216V55.5067L71.4874 53.0439H72.3672V56.9676H71.5091V54.4532L70.1189 56.9676H69.2662H69.2689ZM76.4266 56.1068H76.7823V58.0049H76.0655V56.9676H73.5185V58.0049H72.8016V56.1068H73.1573C73.5076 55.6371 73.6923 54.6161 73.7086 53.0439H76.4294V56.1068H76.4266ZM74.0235 56.1068H75.536V53.9101H74.4661C74.4363 54.9447 74.2869 55.6751 74.0235 56.1068ZM79.3456 55.724L80.2281 55.8977C80.1087 56.2915 79.924 56.5847 79.6742 56.7748C79.4244 56.9649 79.1203 57.0599 78.7618 57.0599C78.2649 57.0599 77.8794 56.8997 77.6105 56.582C77.2901 56.2127 77.1326 55.6941 77.1326 55.0288C77.1326 54.3636 77.2928 53.8476 77.616 53.4512C77.8875 53.1172 78.2405 52.9516 78.6722 52.9516C79.1529 52.9516 79.5303 53.1226 79.8018 53.4621C80.1168 53.8531 80.2716 54.426 80.2716 55.1863V55.3058H78.0423C78.0477 55.6181 78.121 55.857 78.2622 56.0281C78.4034 56.1992 78.5718 56.2833 78.77 56.2833C79.0551 56.2833 79.2479 56.096 79.3429 55.7212L79.3456 55.724ZM79.3918 54.6704C79.3837 54.3636 79.3158 54.1328 79.1882 53.978C79.0605 53.8232 78.9058 53.7472 78.7293 53.7472C78.5419 53.7472 78.3844 53.8286 78.2541 53.9888C78.1237 54.1518 78.0586 54.3799 78.0613 54.6704H79.3918ZM80.9586 56.9676V53.0439H81.8492V54.4722H83.1227V53.0439H84.0134V56.9676H83.1227V55.3167H81.8492V56.9676H80.9586ZM84.513 53.8612V53.0439H87.5569V53.8612H86.4816V56.9676H85.591V53.8612H84.5157H84.513ZM88.749 54.2387L87.9425 54.0676C88.0402 53.6711 88.2032 53.386 88.4258 53.2122C88.6512 53.0385 88.9743 52.9516 89.3952 52.9516C89.7699 52.9516 90.0578 53.0032 90.256 53.1036C90.4542 53.2041 90.5954 53.3426 90.6796 53.5164C90.7638 53.6902 90.8072 54.0051 90.8072 54.464L90.7991 55.6778C90.7991 56.0172 90.8126 56.2725 90.8425 56.4381C90.8697 56.6037 90.924 56.7802 91 56.9676H90.1202L90.0035 56.5386C89.8514 56.7096 89.6885 56.84 89.5147 56.9296C89.3409 57.0165 89.1563 57.0599 88.9608 57.0599C88.6349 57.0599 88.3661 56.954 88.157 56.7449C87.9479 56.5359 87.8447 56.2535 87.8447 55.9032C87.8447 55.6805 87.8882 55.4877 87.9724 55.3221C88.0565 55.1564 88.176 55.0261 88.3308 54.9256C88.4856 54.8252 88.7327 54.7383 89.0721 54.6623C89.4848 54.5699 89.7699 54.4858 89.9329 54.407C89.9329 54.1898 89.9166 54.0459 89.884 53.978C89.8514 53.9101 89.7917 53.8531 89.7075 53.8096C89.6206 53.7662 89.4984 53.7445 89.3436 53.7445C89.1889 53.7445 89.0585 53.7798 88.9689 53.8476C88.8766 53.9155 88.8033 54.0459 88.7462 54.2359L88.749 54.2387ZM89.9383 55.0831C89.8242 55.1266 89.6477 55.1782 89.4088 55.2379C89.1345 55.3058 88.9526 55.3845 88.8684 55.4687C88.7843 55.5529 88.7408 55.6615 88.7408 55.7946C88.7408 55.9439 88.787 56.0715 88.882 56.1747C88.9771 56.2779 89.0938 56.3295 89.235 56.3295C89.3599 56.3295 89.4848 56.2888 89.6097 56.2046C89.7346 56.1204 89.8188 56.0227 89.8677 55.9113C89.9138 55.7973 89.9383 55.5909 89.9383 55.2922V55.0858V55.0831ZM7.90171 66.0532V60.6388H9.40602C9.9681 60.6388 10.3347 60.6659 10.5057 60.7175C10.78 60.8017 11.0081 60.9809 11.1873 61.2524C11.3665 61.5267 11.4561 61.877 11.4561 62.3087C11.4561 62.6997 11.3801 63.0283 11.2253 63.2944C11.0705 63.5578 10.8777 63.7451 10.6469 63.851C10.4161 63.9569 10.017 64.0113 9.44947 64.0113H8.8358V66.0532H7.90171ZM8.8358 61.5538V63.0935H9.35443C9.702 63.0935 9.93823 63.069 10.0631 63.0229C10.188 62.9767 10.2912 62.8925 10.37 62.7703C10.4487 62.6481 10.4895 62.4988 10.4895 62.3196C10.4895 62.1404 10.4487 61.9883 10.3645 61.8634C10.2831 61.7412 10.1799 61.657 10.0604 61.6163C9.93823 61.5756 9.68299 61.5538 9.29198 61.5538H8.8358ZM12.0128 64.0357C12.0128 63.6501 12.0915 63.2998 12.2517 62.9848C12.4119 62.6699 12.6183 62.4336 12.8763 62.2734C13.1342 62.1159 13.422 62.0372 13.7452 62.0372C14.2855 62.0372 14.7091 62.2408 15.0187 62.6454C15.3282 63.05 15.483 63.5252 15.483 64.0683C15.483 64.4729 15.4015 64.8367 15.2413 65.1626C15.0811 65.4884 14.8693 65.7328 14.6087 65.8957C14.348 66.0586 14.0602 66.1428 13.7506 66.1428C13.251 66.1428 12.8382 65.9609 12.507 65.5943C12.1784 65.2305 12.0128 64.7091 12.0128 64.033V64.0357ZM12.9224 64.09C12.9224 64.4864 13.0039 64.7878 13.1668 64.9915C13.3297 65.1952 13.5252 65.2983 13.756 65.2983C13.9868 65.2983 14.1715 65.1952 14.3317 64.9915C14.4919 64.7878 14.5706 64.4837 14.5706 64.0846C14.5706 63.6854 14.4892 63.3976 14.3263 63.1912C14.1633 62.9876 13.9678 62.8844 13.7425 62.8844C13.5171 62.8844 13.3243 62.9876 13.1641 63.1912C13.0039 63.3976 12.9224 63.6963 12.9224 64.0927V64.09ZM19.1107 63.2835L18.2337 63.4682C18.1685 63.0582 17.9648 62.8518 17.6254 62.8518C17.4055 62.8518 17.229 62.9414 17.0932 63.1179C16.9574 63.2971 16.8923 63.5958 16.8923 64.0194C16.8923 64.4864 16.9602 64.815 17.0932 65.0078C17.2263 65.2006 17.4055 65.2956 17.6309 65.2956C17.7992 65.2956 17.9377 65.2413 18.0463 65.13C18.1549 65.0214 18.231 64.8259 18.2771 64.5489L19.1542 64.7227C18.975 65.6676 18.4563 66.1401 17.5983 66.1401C17.0498 66.1401 16.6452 65.9392 16.3791 65.54C16.113 65.1408 15.9826 64.6602 15.9826 64.0981C15.9826 63.4247 16.132 62.9115 16.4334 62.5612C16.7321 62.211 17.1258 62.0345 17.6146 62.0345C18.0083 62.0345 18.3287 62.1349 18.5785 62.3332C18.8283 62.5314 19.0048 62.8491 19.1134 63.2835H19.1107ZM22.714 63.2835L21.837 63.4682C21.7718 63.0582 21.5681 62.8518 21.2287 62.8518C21.0088 62.8518 20.8323 62.9414 20.6965 63.1179C20.5607 63.2971 20.4956 63.5958 20.4956 64.0194C20.4956 64.4864 20.5635 64.815 20.6965 65.0078C20.8296 65.2006 21.0088 65.2956 21.2341 65.2956C21.4025 65.2956 21.541 65.2413 21.6496 65.13C21.7582 65.0214 21.8342 64.8259 21.8804 64.5489L22.7575 64.7227C22.5783 65.6676 22.0596 66.1401 21.2016 66.1401C20.6531 66.1401 20.2485 65.9392 19.9824 65.54C19.7163 65.1408 19.5859 64.6602 19.5859 64.0981C19.5859 63.4247 19.7353 62.9115 20.0367 62.5612C20.3354 62.211 20.7291 62.0345 21.2179 62.0345C21.6116 62.0345 21.932 62.1349 22.1818 62.3332C22.4316 62.5314 22.6081 62.8491 22.7167 63.2835H22.714ZM23.363 66.0505V62.1268H24.2156V64.5896L25.5814 62.1268H26.4612V66.0505H25.6032V63.5361L24.2129 66.0505H23.3603H23.363ZM27.3464 66.0505V62.1268H28.1991V64.5896L29.5649 62.1268H30.4447V66.0505H29.5866V63.5361L28.1963 66.0505H27.3437H27.3464ZM29.5269 60.5736H29.9586C29.9369 60.9184 29.8337 61.1846 29.6518 61.3692C29.4698 61.5538 29.2445 61.6489 28.9757 61.6489C28.7068 61.6489 28.4787 61.5566 28.2995 61.3692C28.1203 61.1818 28.0144 60.9184 27.99 60.5736H28.4217C28.4543 60.9293 28.6389 61.1058 28.9784 61.1058C29.3178 61.1058 29.4997 60.9293 29.5296 60.5736H29.5269ZM34.2625 63.2835L33.3854 63.4682C33.3202 63.0582 33.1166 62.8518 32.7772 62.8518C32.5572 62.8518 32.3807 62.9414 32.2449 63.1179C32.1092 63.2971 32.044 63.5958 32.044 64.0194C32.044 64.4864 32.1119 64.815 32.2449 65.0078C32.378 65.2006 32.5572 65.2956 32.7826 65.2956C32.9509 65.2956 33.0894 65.2413 33.198 65.13C33.3067 65.0214 33.3827 64.8259 33.4288 64.5489L34.3059 64.7227C34.1267 65.6676 33.6081 66.1401 32.75 66.1401C32.2015 66.1401 31.7969 65.9392 31.5308 65.54C31.2647 65.1408 31.1344 64.6602 31.1344 64.0981C31.1344 63.4247 31.2837 62.9115 31.5851 62.5612C31.8838 62.211 32.2775 62.0345 32.7663 62.0345C33.16 62.0345 33.4804 62.1349 33.7303 62.3332C33.9801 62.5314 34.1566 62.8491 34.2652 63.2835H34.2625ZM34.8951 66.0505V62.1268H35.7858V63.7234C35.908 63.7126 36.0003 63.6718 36.0628 63.6094C36.1279 63.5442 36.2067 63.3568 36.3017 63.0446C36.3967 62.7323 36.5026 62.4961 36.6167 62.3386C36.7307 62.1811 36.9344 62.1024 37.2249 62.1024C37.3064 62.1024 37.4231 62.1132 37.5725 62.1322V62.8056H37.4747C37.3335 62.8056 37.2249 62.8246 37.1516 62.8654C37.0783 62.9061 37.0077 63.0337 36.9425 63.2537C36.8774 63.4736 36.8176 63.642 36.7579 63.7587C36.6981 63.8755 36.6004 63.9678 36.4646 64.0357C36.5787 64.0764 36.69 64.1525 36.804 64.2692C36.9181 64.3833 37.0539 64.6168 37.2141 64.9671L37.7055 66.0505H36.7552L36.3044 64.9128C36.2148 64.6847 36.1361 64.5353 36.0736 64.4701C36.0084 64.405 35.9134 64.3724 35.7831 64.3724V66.0478H34.8924L34.8951 66.0505ZM37.9662 64.033C37.9662 63.6474 38.045 63.2971 38.2052 62.9821C38.3654 62.6671 38.5717 62.4309 38.8297 62.2707C39.0877 62.1132 39.3755 62.0345 39.6986 62.0345C40.239 62.0345 40.6626 62.2381 40.9721 62.6427C41.2817 63.0473 41.4365 63.5225 41.4365 64.0656C41.4365 64.4701 41.355 64.834 41.1948 65.1599C41.0346 65.4857 40.8228 65.7301 40.5621 65.893C40.3014 66.0559 40.0136 66.1401 39.7041 66.1401C39.2044 66.1401 38.7917 65.9582 38.4604 65.5916C38.1319 65.2277 37.9662 64.7064 37.9662 64.0303V64.033ZM38.8759 64.0873C38.8759 64.4837 38.9573 64.7851 39.1203 64.9888C39.2832 65.1924 39.4787 65.2956 39.7095 65.2956C39.9403 65.2956 40.1249 65.1924 40.2851 64.9888C40.4453 64.7851 40.5241 64.481 40.5241 64.0818C40.5241 63.6827 40.4426 63.3949 40.2797 63.1885C40.1168 62.9848 39.9213 62.8817 39.6959 62.8817C39.4705 62.8817 39.2777 62.9848 39.1175 63.1885C38.9573 63.3949 38.8759 63.6936 38.8759 64.09V64.0873ZM42.1099 66.0478V62.1241H42.9625V64.5869L44.3283 62.1241H45.2081V66.0478H44.35V63.5333L42.9598 66.0478H42.1072H42.1099ZM44.2903 60.5709H44.722C44.7003 60.9157 44.5971 61.1818 44.4152 61.3665C44.2333 61.5511 44.0079 61.6462 43.7391 61.6462C43.4703 61.6462 43.2422 61.5538 43.063 61.3665C42.8837 61.1791 42.7778 60.9157 42.7534 60.5709H43.1852C43.2177 60.9266 43.4024 61.1031 43.7418 61.1031C44.0812 61.1031 44.2631 60.9266 44.293 60.5709H44.2903ZM50.6578 60.6333V61.1683C52.0074 61.2334 52.6835 61.9421 52.6835 63.2944C52.6835 64.6466 52.0074 65.3554 50.6578 65.4178V66.0451H49.7237V65.4178C48.3796 65.3554 47.7089 64.6494 47.7089 63.2944C47.7089 61.9394 48.3796 61.228 49.7237 61.1683V60.6333H50.6578ZM49.7237 64.5027V62.0833C48.9906 62.0833 48.624 62.4906 48.624 63.3025C48.624 64.1144 48.9906 64.5027 49.7237 64.5027ZM50.6578 62.0833V64.5027C51.3964 64.5027 51.7657 64.0954 51.7657 63.2754C51.7657 62.4553 51.3964 62.0833 50.6578 62.0833ZM55.3744 64.8014L56.2569 64.9752C56.1374 65.3689 55.9528 65.6622 55.703 65.8523C55.4532 66.0423 55.149 66.1374 54.7906 66.1374C54.2937 66.1374 53.9081 65.9772 53.6393 65.6595C53.3189 65.2902 53.1614 64.7716 53.1614 64.1063C53.1614 63.441 53.3216 62.9251 53.6447 62.5287C53.9163 62.1947 54.2693 62.029 54.701 62.029C55.1816 62.029 55.5591 62.2001 55.8306 62.5395C56.1456 62.9305 56.3004 63.5035 56.3004 64.2638V64.3833H54.071C54.0765 64.6955 54.1498 64.9372 54.291 65.1055C54.4322 65.2766 54.6005 65.3608 54.7988 65.3608C55.0839 65.3608 55.2767 65.1734 55.3717 64.7987L55.3744 64.8014ZM55.4206 63.7479C55.4124 63.441 55.3446 63.2102 55.2169 63.0554C55.0893 62.9007 54.9345 62.8246 54.758 62.8246C54.5707 62.8246 54.4132 62.9061 54.2828 63.0663C54.1525 63.2292 54.0873 63.4573 54.0901 63.7479H55.4206ZM60.1779 65.1843H60.5336V67.0823H59.8168V66.0451H57.2697V67.0823H56.5529V65.1843H56.9086C57.2589 64.7145 57.4435 63.6936 57.4598 62.1214H60.1806V65.1843H60.1779ZM57.7748 65.1843H59.2873V62.9876H58.2174C58.1875 64.0221 58.0382 64.7525 57.7748 65.1843ZM63.0969 64.7987L63.9794 64.9725C63.8599 65.3662 63.6753 65.6595 63.4255 65.8496C63.1757 66.0396 62.8715 66.1347 62.5131 66.1347C62.0162 66.1347 61.6306 65.9745 61.3618 65.6568C61.0414 65.2875 60.8839 64.7688 60.8839 64.1036C60.8839 63.4383 61.0441 62.9224 61.3672 62.5259C61.6388 62.192 61.9918 62.0263 62.4235 62.0263C62.9041 62.0263 63.2816 62.1974 63.5531 62.5368C63.8681 62.9278 64.0229 63.5008 64.0229 64.2611V64.3805H61.7935C61.799 64.6928 61.8723 64.9345 62.0135 65.1028C62.1547 65.2739 62.323 65.3581 62.5213 65.3581C62.8064 65.3581 62.9992 65.1707 63.0942 64.796L63.0969 64.7987ZM63.1431 63.7451C63.1349 63.4383 63.067 63.2075 62.9394 63.0527C62.8118 62.898 62.657 62.8219 62.4805 62.8219C62.2932 62.8219 62.1357 62.9034 62.0053 63.0636C61.875 63.2265 61.8098 63.4546 61.8125 63.7451H63.1431ZM64.7207 62.1186H65.5462V62.6943C65.6602 62.4879 65.8096 62.325 65.9942 62.2055C66.1788 62.0861 66.3798 62.0263 66.5943 62.0263C66.9772 62.0263 67.3084 62.2028 67.5854 62.5531C67.8624 62.9034 68.0009 63.4003 68.0009 64.0438C68.0009 64.72 67.8624 65.2359 67.5854 65.597C67.3084 65.9555 66.9772 66.1347 66.5943 66.1347C66.4178 66.1347 66.2522 66.0939 66.0974 66.0098C65.9453 65.9283 65.7824 65.779 65.6141 65.5617V67.5331H64.7234V62.1186H64.7207ZM65.6005 64.014C65.6005 64.4593 65.6765 64.7851 65.8259 64.9969C65.9752 65.206 66.1571 65.3119 66.3716 65.3119C66.5862 65.3119 66.7464 65.2142 66.8848 65.0214C67.0233 64.8286 67.0939 64.5109 67.0939 64.071C67.0939 63.6311 67.0233 63.346 66.8794 63.1478C66.7355 62.9495 66.5617 62.8491 66.3581 62.8491C66.1436 62.8491 65.9616 62.9468 65.8177 63.1396C65.6738 63.3324 65.6032 63.6257 65.6032 64.0167L65.6005 64.014ZM69.3721 63.3134L68.5657 63.1423C68.6634 62.7459 68.8263 62.4608 69.049 62.287C69.2744 62.1132 69.5975 62.0263 70.0184 62.0263C70.3931 62.0263 70.6809 62.0779 70.8792 62.1784C71.0774 62.2789 71.2186 62.4173 71.3027 62.5911C71.3869 62.7649 71.4304 63.0799 71.4304 63.5388L71.4222 64.7498C71.4222 65.0892 71.4358 65.3445 71.4657 65.5101C71.4928 65.6758 71.5471 65.8523 71.6232 66.0396H70.7434L70.6266 65.6106C70.4746 65.7817 70.3116 65.912 70.1378 66.0016C69.9641 66.0885 69.7794 66.132 69.5839 66.132C69.2581 66.132 68.9893 66.026 68.7802 65.817C68.5711 65.6079 68.4679 65.3255 68.4679 64.9752C68.4679 64.7525 68.5114 64.5598 68.5955 64.3941C68.6797 64.2285 68.7992 64.0981 68.954 63.9977C69.1087 63.8999 69.3558 63.8103 69.6953 63.7343C70.108 63.642 70.3931 63.5578 70.556 63.479C70.556 63.2618 70.5397 63.1179 70.5071 63.05C70.4746 62.9821 70.4148 62.9251 70.3307 62.8817C70.2438 62.8382 70.1216 62.8165 69.9668 62.8165C69.812 62.8165 69.6817 62.8518 69.5921 62.9197C69.4997 62.9876 69.4264 63.1179 69.3694 63.308L69.3721 63.3134ZM70.5614 64.1606C70.4474 64.204 70.2709 64.2556 70.032 64.3154C69.7577 64.3833 69.5758 64.462 69.4916 64.5462C69.4074 64.6304 69.364 64.739 69.364 64.872C69.364 65.0214 69.4101 65.149 69.5052 65.2522C69.6002 65.3554 69.717 65.407 69.8582 65.407C69.9831 65.407 70.108 65.3662 70.2329 65.282C70.3578 65.2006 70.442 65.1001 70.4909 64.9888C70.537 64.8747 70.5614 64.6684 70.5614 64.3697V64.1633V64.1606ZM75.3323 65.2033H75.6799V67.0823H74.9631V66.0451H72.2857V62.1214H73.1763V65.206H74.4417V62.1214H75.3323V65.2033ZM76.2746 66.0423V62.1186H77.1272V64.5815L78.493 62.1186H79.3728V66.0423H78.5147V63.5279L77.1245 66.0423H76.2719H76.2746ZM80.258 66.0423V62.1186H81.1106V64.5815L82.4765 62.1186H83.3562V66.0423H82.4982V63.5279L81.1079 66.0423H80.2553H80.258Z" fill="white"/>
</svg>
